<?xml version="1.0" encoding="utf-8"?>
<!DOCTYPE svg PUBLIC "-//W3C//DTD SVG 1.1//EN" "http://www.w3.org/Graphics/SVG/1.1/DTD/svg11.dtd">
<svg version="1.1" id="Layer_1" xmlns="http://www.w3.org/2000/svg" xmlns:xlink="http://www.w3.org/1999/xlink" x="0px" y="0px"
	 viewBox="0 0 2048 2185" enable-background="new 0 0 2048 2185" xml:space="preserve">
<g>
	<path d="M901.2484,43.63c11.62-1.79,23.43-1.29,35.15-1.38c35.87,0.97,72.35,8.06,103.8101,25.93
		c21.49,11.87,40.1899,28.84,53.64,49.41c12.5599,19.08,23.46,39.18,35.1499,58.79c6.6801,11.39,13.0901,22.94,19.6001,34.43
		c1.97,3.74,4.38,7.27,5.88,11.24c-13.8701-20.59-27.4301-41.39-40.7101-62.37c-11.6-17.64-21.96-36.22-35.6-52.42
		c-19.0699-22.17-44.75-37.91-72.09-47.78C972.5783,47.38,936.6583,43.89,901.2484,43.63z"/>
	<path d="M1014.3383,42.46c29.15-0.29,56.53,11.94,81.21,26.38c18.29,10.83,36.85,21.36,53.88,34.14c1.17,0.81,2.45,1.49,3.72,2.18
		c20.46,5.78,42.37,7.55,61.26,18c16.17,8.78,30.47,20.57,44.05,32.88c28.5,26.25,52.14,58.2,66.6699,94.25
		c16.16,39.95,22.0901,83.06,26.16,125.69c0.4,4.73,1.17,9.48,0.76,14.24c-7.26-46.16-14.16-93.06-32.26-136.47
		c-14.14-34.45-36.46-65.1-62.92-91.11c-13.4299-12.67-27.12-25.32-42.9299-34.99c-18.53-11.45-40.48-14.55-60.6901-21.81
		c14.6801,12.05,27.4701,26.27,38.53,41.7c5.1901,6.9,9.4,14.53,15.33,20.86c13.9601,15.66,31.0701,28.3,44.1001,44.83
		c12.4299,15.43,20.64,33.63,28.5,51.67c7.5,17.44,15.26,35.08,18.1899,53.99c4.03,24.57,1.92,49.57-0.12,74.23
		c-2.34,26.74-5.15,53.87-14.92,79.1c12.89-17.49,19.4801-38.91,21.91-60.32c2.5601-23.19,1.22-46.57-0.27-69.79
		c-0.9399-14.62-3.1599-29.12-5.9399-43.49c8.04,19.78,11,41.2,12.84,62.34c1.97,23.65,2.17,47.9-4.1699,70.95
		c-4.1101,15-11.1101,29.41-21.5,41.08c-2.2201,2.57-5.2101,4.56-6.67,7.71c-1.26,2.32-2.1,4.9-3.89,6.88
		c0.73-2.21,1.62-4.35,2.51-6.5c-2.17,1.55-4.24,3.2-6.46,4.65c2.9099-3.96,7.72-6.66,9.0599-11.62
		c7.34-21.63,9.87-44.53,11.35-67.21c1.29-25.64,3.79-51.4,1.27-77.03c-1.66-17.24-6.98-33.87-13.64-49.77
		c-8.4299-20.08-16.1599-40.7-28.2-58.98c-11.71-17.59-28.1-31.25-41.72-47.25c20.97,35.43,36.9399,74.29,43.24,115.14
		c2.34,15.86,3.1699,31.96,2.27,47.97c-0.5701,5.46,1.62,10.69,1.83,16.12c2.86,31.52-8.76,62.05-22.47,89.82
		c-4.03,7.73-7.3501,16.07-13.37,22.53c-2.3301,2.24-4.9501,4.86-8.4,4.85l0.14-0.63c5.9399-2.31,8.5599-9.01,11.14-14.4
		c11.24-28.79,24.51-57.34,28.6799-88.26c0.85-4.67,0.29-9.51,1.78-14.06c-2.36,1.99-1.11,5.4-1.83,8.07
		c-3.13,19.98-9.4601,39.47-18.52,57.55c-2.28,4.3-4.4701,8.69-7.36,12.62c8.86-17.44,15.9399-35.87,19.62-55.14
		c9.9299-47.2,2.95-96.72-14.2101-141.4c-7.35-19.39-16.83-37.91-27.2799-55.79c-10.7201-18.14-22.5-35.81-36.8401-51.31
		c-13.73-15.17-30.46-27.2-47.52-38.32c-20.95-13.44-41.8199-27.42-64.8999-37.02C1042.3284,46.63,1028.3484,43.94,1014.3383,42.46z
		"/>
	<path d="M751.7484,67.27c33.08-18.63,72.51-24.05,109.85-18.97c22.63,2.93,44.71,9.59,65.43,19.1c2.69,1.21,5.33,2.79,8.38,2.9
		c0.72,0.77,1.43,1.56,2.16,2.34c11.71,5.53,22.75,12.43,33.52,19.6c3.46,2.2,6.56,5.03,10.41,6.59
		c13.74,5.85,27.08,12.61,40.25,19.68c12.81,6.88,25.42,14.24,36.93,23.18c18.41,14.53,33.6899,32.55,47.88,51.11
		c22.13,28.87,40.64,60.54,54.5599,94.17c-0.12-0.5-0.37-1.51-0.49-2.01c-6.74-23.37-15.0499-46.29-24.76-68.59
		c-9.47-20.83-18.23-42.76-34.2699-59.58c-15.5901-15.46-31.5901-30.72-49.8-43.1c-27.17-17.85-57.55-30.9-89.38-37.65
		c-8.22-1.67-16.52-3.65-24.93-3.77c-0.21-0.52-0.62-1.56-0.83-2.08c37.38,2.13,74.14,13.18,106.73,31.55
		c20.9401,11.61,38.9401,27.64,56.25,44c6.6801,6.06,12.77,12.78,17.74,20.34c10.8401,16.46,18.2001,34.85,25.9401,52.88
		c10.37,24.86,18.13,50.75,24.09,77c2.28,9.84,3.4401,19.93,6.67,29.54c0.2899-1.98,0.49-3.97,0.88-5.93
		c2.0499,10.24,2.5399,20.71,4.72,30.92c3.9399,23.92,6.3,48.48,2.4,72.57c-2.7001,16.77-8.2101,33.55-18.6901,47.12
		c3.6801-6.89,7.63-13.72,10.0701-21.19c5.6599-16.67,7.89-34.55,6.4099-52.09c-0.01,11.41-1.5699,22.75-3.6399,33.95
		c-2.0701,10.64-5.6201,21.58-13.41,29.48c-4.3301,4.39-9.9,8.06-16.2001,8.55c9.87-3.82,16.6001-13,19.9401-22.74
		c4.17-12.28,4.7-25.35,6.51-38.09c-4.78,18.18-12.16,37.39-28.1901,48.56c-2.7799,2.34-6.77,3.05-9.02,5.98
		c-0.2699-0.12-0.7999-0.36-1.0699-0.47c-1.15,0.62-2.26,1.27-3.42,1.83c1.6901-1.76,3.75-3.1,5.51-4.78
		c16.5901-42.17,18.23-89.99,4.5701-133.21c-6.5901-21.33-16.2001-41.58-26.8-61.18c-22.29-40.97-49.99-79.06-82.6799-112.36
		c-21.21-21.62-44.28-41.56-69.6401-58.18c-12.3-5.82-25.61-9.02-38.47-13.29c-0.07-0.94-0.21-2.82-0.28-3.76
		c1.02,0.26,2.04,0.54,3.08,0.8c-0.52,0.06-1.55,0.18-2.06,0.23c-1.82,2,1.45,3.03,2.99,3.24c8.15,1.62,16.17,3.86,24.12,6.28
		c-28.52-17.71-60.7-30.04-94.12-34.12c-22.06-2.62-44.62-1.74-66.26,3.44c-19.68,4.65-38.4,13.28-54.81,25.09
		c-16.5099,11.81-30.8,26.5-43.27,42.45c-11.72,14.76-21.01,31.19-30.55,47.39c-5.22,8.96-11.44,17.27-17.84,25.41
		c5.78-1.48,12.04-1.49,17.52-3.92c7.39-10.27,16.02-19.65,24.55-29c13.39-14.1,28.23-27.18,45.55-36.24
		c18.33-9.61,38.58-14.8,58.78-18.82c29.66-5.56,60.85-7.42,90.19,0.92c17.21,5.42,33.2599,13.92,48.99,22.63
		c30.72,17.38,58.9,39.21,83.42,64.59c31.11,32.27,54.89,70.81,75.1299,110.59c10.8301,21.29,20.02,43.56,25.4801,66.87
		c6.25,27.2,7.51,55.99,0.25,83.13c1.6399-10.98,3.5199-22,3.21-33.15c0.24-27.48-6.6901-54.56-16.8201-79.95
		c-9.0199-22.49-20.74-43.78-33.1699-64.55c-10.1801-16.85-20.85-33.45-32.9-49.04c-19.99-26.13-44.04-49.04-70.53-68.51
		c-1.58-1.41-3.1-2.86-5.11-3.61c19.67,15.15,36.72,33.62,50.62,54.19c15.15,21.93,27.49,45.64,39.29,69.51
		c11.09,21.95,21.77,44.15,30.88,67.02c13.76,34.4,23.09,71.72,18.66,108.97c0.0399-10.66,0.21-21.37-1.14-31.98
		c-2.86-24.42-10.4301-48.03-19.66-70.72c-9.0699-22.33-20.39-43.63-31.0699-65.2c-11.38-22.51-22.9901-44.97-36.8801-66.05
		c-15.33-23.18-33.42-44.92-55.72-61.71c-26.11-19.84-58.13-29.94-90.01-35.84c-24.64-4.49-49.98-5.67-74.82-2.11
		c-17.44,2.43-34.38,7.84-50.23,15.45c13.81-8.5,29.47-13.65,45.24-17.15c25.52-5.38,51.96-4.98,77.69-1.32
		c31.12,4.64,62.53,13.31,88.7,31.33l0.21-0.21c-13.48-9.35-27.69-17.61-42.3-25.06c-11.44-5.62-23.02-11.29-35.52-14.16
		c-23.17-5.47-47.32-4.72-70.78-1.65c-17.54,2.46-35,6.07-51.75,11.88c-15.8,5.46-30.44,13.98-43.45,24.43
		c-16.66,13.22-30.93,29.1-44.86,45.09c27.41-4.49,55.08-7.3,82.82-8.64c19.0699-1.09,38.64-1.53,57.1,4.12
		c18.08,5.59,34.23,15.72,50.49,25.14c14.33,8.36,28.27,18.18,38.14,31.74c12.55,16.88,19.67,36.91,26.63,56.54
		c10.31,30.24,16.36,61.73,26.52,92.01c4.81,14.89,10.72,29.61,19.66,42.54c8.22,11.92,18.53,22.22,29.11,32.03
		c9.98,9.1,21.26,17.43,34.5101,20.93c14.33,4.08,30.1799,0.59,42.1699-8.04c-7.38,6.85-17.48,10.1-27.33,11.2
		c-1.03,2.02-3.13,2.97-4.77,4.39c-7.39,6.08-15.39,11.8-24.61,14.68c-6.92,2.2-14.47,2.08-21.4-0.02
		c-10.45,7.55-19.33,16.99-29.27,25.15c-5.33,4.41-11.22,8.06-17,11.83c11.87-1.6,23.48-5.72,32.9301-13.22
		c-9.77,10.91-25.1,14.21-38.97,16.42c-27.64,13.69-59.65,16.57-89.86,11.84c-18.51-2.86-36.51-8.53-53.66-15.98
		c-2.64-1.08-5.29-2.97-8.27-1.85l0.52-1.32l-0.73-0.2c-2.99-2.28-6.54-3.64-9.78-5.4901c-11.7401-6.23-22.96-13.42-33.6201-21.35
		c-2.37-1.77-4.5699-3.84-7.3-5.05c-0.2-0.4-0.6-1.21-0.8-1.61c-2.72-1.13-5.06-2.94-7.47-4.58l-1.72-0.36l1.02-1.45
		c-0.6-0.54-1.19-1.07-1.77-1.59c-4.43-3.18-10.08-3.68-15.3-4.59c4.89,1.11,9.74,2.5,14.28,4.69c-0.12,0.23-0.36,0.68-0.48,0.91
		c-2.68-0.11-5.09-1.63-7.72-2.09c-14.96-3.59-30.31-0.08-45.1801,2.27c-42.86,7.36-88-0.02-126.41-20.36
		c-19.41-10.05-36.3-24.2-55.44-34.7c-14.33-7.86-30.64-12.8-47.1-11.91c13.18,17.43,28.52,33.41,46.23,46.26
		c-2.1-4.16-4.42-8.22-6.19-12.54c5.44,6.64,8.5,15.66,16.41,19.93c33.94,22.76,73.84,36.66,114.65,39.34
		c21.71,1.54,43.62,0.02,64.96-4.27c16.38-3.27,32.08-9.16,48.26-13.21c-8.94-3.64-18.72-5.16-28.34-4.4
		c-11.77,0.74-23.26,3.61-34.86,5.5c-59.24,9.52-122.37-6.1-169.65-43.26c-3.65-2.97-7.44-5.86-10.62-9.35
		c30.87,22.33,66.59,38.04,104.11,44.9c27.17,5.06,55.18,5.4,82.49,1.19c14.39-2.15,29.25-4.63,43.67-1.28
		c5.57,1.33,10.97,3.44,15.86,6.45c2.39-0.31,5-1.1201,7.11,0.54c-1.03,0.14-3.09,0.41-4.13,0.55c0.42,2.25,2.9,3.35,3.95,5.3
		c-2.38-1.49-4.59-3.21-7-4.62c-11.35,2.78-22.03,7.6-33.13,11.16c-43.67,14.35-91.76,15.18-135.74,1.67
		c-18.65-5.57-36.49-13.75-53.07-23.93c23.99,25.36,55.7,43.6,89.99,50.57c32.96,6.7,67.79,3.72,99.19-8.3
		c1.32-0.5,2.66-0.9301,4.06-1.2401c-36.74,20.15-81.69,23.79-121.6,11.53c-31.88-9.95-60.46-30.18-80.33-57.03
		c-1.06-1.5-2.25-2.93-3.8-3.94c-10.37-7.31-19.85-15.79-28.85-24.7c1.46,5.22,2.77,10.56,5.01,15.51
		c9.41,14.26,20.35,27.48,32.31,39.68c13.89,13.58,29.97,25.23,48.02,32.61c19.26,7.96,40.34,10.58,61.06,9.98
		c46.68-2.05,92.34-17.15,132.23-41.24c0.33-0.05,1-0.15,1.34-0.21c-27.13,19.58-58,34.01-90.58,41.7
		c-25.78,6.13-52.86,8.52-79.06,3.66c-14.79-2.66-29.1-7.95-42-15.66c-17.21-10.12-31.73-24.26-44.14-39.77
		c-6.17-7.71-11.39-16.1-16.81-24.33c11.41,29.88,31.39,57.07,58.52,74.44c19.41,12.48,42.3,19.97,65.49,19.69
		c19.87-0.59,39.29-5.17,58.88-8.1c10.62-1.58,21.2-3.48,31.87-4.69l0.02,0.38c-22.92,5.19-45.73,10.91-68.79,15.42
		c-18.12,3.73-37.16,3.98-55.05-1.0699c-32.7599-8.78-61.04-31.47-78.24-60.51c-10.43-17.34-17.58-36.6-21.18-56.51
		c-0.24-1.64-0.81-3.22-2.06-4.36c-5.59-6.06-10.94-12.37-15.72-19.1c-0.35,0.12-1.04,0.36-1.39,0.48
		c-0.25-4.22-3.59-7.1-5.55-10.55c-6.77,0.63-13.16,3.02-19.32,5.77c5.11-4.33,11.82-6.09,18.19-7.67
		c-3.25-5.49-5.1-11.79-4.49-18.21l0.42,0.01c-0.25,6.38,2.11,13.03,6.3,17.74c8.04-0.71,16.21-0.92,24.16,0.75
		c5.4,0.87,10.53,2.84,15.83,4.16c-6.22-2.3-11.76-7.27-13.16-13.95c-1.15-7.42,1.3-14.71,1.76-22.08
		c0.39-6.56,2.36-14.01-2.1-19.66c5.31,2.29,6.42,8.52,6.9,13.64c1.07,8.04,0.02,16.11-0.5,24.13c0.08,8.37,8.31,13.07,15.11,15.89
		c-4.62-8.19-8.16-16.96-10.8-25.97c6.4,7.09,10.84,15.64,16.57,23.23c6.67,9.03,15.3,16.51,24.86,22.34
		c3.5,2.2,7.33,3.83,10.74,6.19c-3.16-0.22-6.26-0.85-9.36-1.43c13.78,8.97,28.01,17.41,43.32,23.51
		c21.2,8.62,43.79,13.8,66.64,15.2c7.71,0.57,15.46,0.03,23.17,0.74c-2.26-0.35-4.54-0.53-6.79-0.85
		c-11.5601-0.57-23.11-2.16-34.27-5.26c-3.65-1.02-7.45-1.17-11.15-1.82c-18.6-3.15-36.33-10.97-51.41-22.28
		c-2.63-1.96-4.96-4.33-7.84-5.92c-8.78-4.83-17.46-9.83-26.02-15.01c-8.32-5.07-16.37-11.02-22.02-19.09
		c-8.17-11.98-11.26-26.46-14.02-40.46c4.55,12.48,7.62,25.87,15.77,36.68c8.17,11.87,21.66,18.07,34.02,24.57
		c-3.28-4.26-6.09-8.9-9.4301-13.08c-11.48-9.01-21.95-20.57-25.47-35.1c-2.48-8.53-0.34-17.4-0.72-26.08
		c-0.1-4.75-2.74-9.35-7.09-11.4c-7.16-3.64-15.49-1.35-22.42,1.7c-2.44,0.79-2.09,3.86-2.95,5.84c0.1-1.62,0.22-3.23,0.39-4.84
		c-10.96,5.61-20.65,13.55-28.14,23.33c-1.19-0.72-2.38-1.43-3.56-2.13c5.78-10.97,9.13-25.73,22.05-30.5
		c-6.58,4.16-10.59,11.03-12.95,18.28c6.59-6.06,13.69-11.74,21.92-15.42c2.38-1.17,5.22-1.79,6.83-4.1
		c7.43-8.92,18.8-13.87,30.2-14.99c11-1.2,21.98,1.86,31.91,6.38c0.19-1.15,0.41-2.3,0.65-3.45c0.15,1.31,0.29,2.63,0.43,3.95
		c17.3,8.57,31.56,21.82,46.36,33.95c27.34,22.62,53.89,46.18,81.39,68.6c8.55,6.02,17.21,11.88,25.93,17.65
		c-10.69-13.22-18.17-28.62-28.15-42.33c-21.98-30.64-51.52-55.91-85.54-72.27c-19.58-9.51-41.12-16.17-63.08-15.49
		c-23.68,0.19-46.4,8.13-68.02,17.13c-10.16,4.02-19.8,9.28-30,13.16c0.5-0.32,1.5-0.97,2.01-1.29c16.2-8.87,32.46-17.8,49.81-24.26
		c18.87-7.14,39.12-11.6,59.39-10.11c20.89,1.44,40.93,8.7,59.3799,18.31c33.42,17.42,62.2401,43.69,82.3,75.62
		c9.26,14.5,16.47,30.3,26.92,44.03c2.48,3.57,6.37,5.69,9.66,8.4c5.88,4.26,11.05,9.48,17.21,13.32
		c-12.46-12.37-23.21-26.41-32.13-41.53c-20.26-33.83-31.77-71.92-50.24-106.65c-14.11-26.54-42.09-45.52-72.22-47.57
		c-5.67-0.44-11.3199,0.16-16.98,0.3c35.11-6.87,72.45,11.49,90.79,41.71c21.3799,35.98,33.54,76.64,55.73,112.18
		c17.14,27.8,41.54,50.48,68.51,68.59c31.36,20.67,67.37,34.99,104.94,38.4c20.57,1.54,41.84-0.06,61.17-7.7
		c-30.42,1.37-60.95-6.53-87.54-21.2c-27.9301-15.28-51.27-38.53-67.27-66.02c-12.54-21.18-21.26-44.5-26.53-68.52
		c-3.69-17.14-6.69-34.53-12.84-51.01c-7.21-19.99-19.75-38.19-36.52-51.34c-10.91-8.58-22.97-15.62-35.45-21.63
		c-12.08-5.61-25.66-9.54-39.04-6.98c-10.38,1.86-20.28,5.97-29.51,10.97c15.16,0.43,30.35,3.11,44.34,9.12
		c19.72,8.28,37.11,22.05,49.62,39.41c20.97,29.03,29.77,64.3,44.43,96.51c11.89,27.32,25.62,53.81,40.54,79.59
		c4.93,8.21,9.44,16.81,15.93,23.93c5.85,6.31,13.57,10.46,21.37,13.88c14.17,6.45,29.16,11.07,44.4901,13.77
		c5.56,1.01,11.3199,1.92,16.93,0.74c2.79-0.49,4.92-2.48,7.26-3.9c-4.05,5.27-11.3,5.92-17.4301,5.52
		c-18.06-1.67-35.86-6.07-52.65-12.89c-7.56-3.33-15.29-6.82-21.3-12.63c-6.57-6.08-11.26-13.8-15.95-21.34
		c-22.94-36.25-41.89-74.94-57.6-114.84c-7.72-19.22-14.81-38.88-25.69-56.6c-6.87-11.35-15.54-21.67-25.89-30
		c-14.93-12.13-33.05-20.23-51.94-23.71c-23.1-4.14-47.43-0.46-68.49,9.81c-14.62,7.29-28.72,16.13-40.26,27.8
		c-3.88,3.74-6.99,8.15-10.6,12.13c8.57-14.87,22.3-25.98,36.47-35.27c17.99-12.27,39.3-19.74,61.1-20.63
		c4.11,0.19,7.31-2.65,10.78-4.38c11.39-5.99,23.97-10.75,37.05-10.19c13.32,0.49,25.94,5.58,37.63,11.65
		c14.44,7.49,28.55,16.2,39.87,28.03c13.24,13.11,22.39,29.88,28.13,47.51c7.28,21.21,9.65,43.71,16.61,65.02
		c10.89,34.61,29.14,67.78,56.86,91.73c-6.85-10.15-11.85-21.37-16.23-32.75c-8.4-21.55-13.89-44.13-17.47-66.95
		c-4.06-25.82-6.22-51.92-7.13-78.03c-0.87-17.55-2.05-35.87-10.53-51.67c-8.66-15.53-23.73-26.22-39.21-34.23
		c-6.27-3.5-13.34-5.07-20.25-6.71c-17.12-3.63-35.25-4.51-52.2599,0.07c-4.81,0.42-9.39,2.11-13.98,3.51
		c-28.52,9.75-53.98,26.88-83.02,35.28c-6.54,1.64-13.19,3.61-20,3.25c19.31-2.23,37.03-10.97,54.15-19.64
		c17.83-9.25,35.49-19.28,54.85-25.04c19.73-5.98,40.93-6.78,61.12-2.75c25.35,5.07,48.87,16.63,70.73,30.12
		c14.91,9.11,26.31,23.04,34.52,38.3c11.45,21.19,17.36,44.78,22.3,68.2c3.5,17.62,8.09,35.18,8.62,53.23
		c0.27,6.03-0.71,12.07,0.11,18.08c1.7,14.41,8.25,27.94,17.32,39.15c11.01,13.47,25.82,23.45,41.76,30.19
		c15.36,6.48,31.81,10.7,48.52,11.31c14.1,0.38,28.87-1.53,41.2599-8.67c-22.65-10.54-41.47-28.01-56.49-47.75
		c-16.75-22-28.2-47.58-36.32-73.89c-6.83-22.04-11.5699-44.68-15.24-67.44c-2.26-13.61-4.5-27.39-9.77-40.23
		c-6.29-15.48-16.52-29.14-28.64-40.55c-14.12-13.11-30.31-24.05-47.83-32.07c-14.35-6.59-30.13-10.31-45.96-9.63
		c-19.84,0.65-38.96,6.57-57.7,12.62c-2.12,0.69-4.24,1.39-6.44,1.73c21.3-8.21,43.13-16.5,66.17-17.62
		c19.1-1.17,37.98,4.42,54.9,12.95c27.69,13.85,53.14,34.5,67.53,62.39c10.03,18.93,12.41,40.52,16.18,61.28
		c6.52,37.22,15.98,74.59,34.69,107.73c13.18,23.75,31.08,45.28,53.76,60.46c4.68,3.08,9.44,6.3,14.85,7.97
		c3.6-1.73,6.32-4.76,9.46-7.15c-2.16,3.09-5.26,5.34-7.88,8.01c8.24,2.16,17.02,0.92,24.66-2.72c7.89-3.76,15.37-8.53,21.85-14.42
		c-13.27,0.5-26.29-4.17-37.17-11.55c-12.64-8.33-23.43-19.05-33.82-29.96c-9.89-10.71-17.8-23.18-23.58-36.55
		c-14.23-32.6-21.1-67.68-31.74-101.48c-6.21-18.35-12.58-36.85-22.34-53.66c-6.75-11.69-15.98-21.91-27.0099-29.71
		c-9.6-7.05-20.01-12.88-30.26-18.93c-14.29-8.25-29.18-16.29-45.6-19.23c-15.35-2.82-31.04-2.35-46.54-1.48
		c-46.5,2.23-93.3,6.7-138.08,20.06c-12.14,3.44-24.62,7.73-33.86,16.71c-12.2,11.74-18.62,27.82-24.82,43.22
		c0.32-1.85,0.95-3.63,1.55-5.4c5.23-14.55,11.47-29.38,22.74-40.34c7.3-7.11,16.64-11.56,26.14-14.91
		c14.54-5.09,29.45-9.06,44.5-12.35c2.93-0.22,4.17-3.15,5.8-5.15c12.28-16.18,20.52-34.89,31.21-52.08
		C696.8083,111.24,721.0684,84.42,751.7484,67.27 M992.6383,108.12c17.5,13.89,33.8,29.25,49.11,45.49
		c29.8301,31.94,55.76,67.61,76.13,106.3c11.3101,21.47,21.4401,43.7,28.05,67.1c12.41,43.13,9.09,90.24-8,131.63
		c13.72-9.27,21.15-25.12,25.71-40.54c6.36-22.48,9.52-45.81,10.51-69.11c-1.83-10.51-5.03-20.76-8.14-30.96
		c-12.75-41.03-34-78.92-58.86-113.78c-12.0699-16.72-24.9-33.01-39.74-47.37c-12.01-11.53-25.65-21.22-39.95-29.68
		C1016.0684,120.47,1004.5283,113.93,992.6383,108.12 M750.2183,254.93c7.89,6.77,15.29,14.46,19.61,24.06
		c10.27,21.45,9.39,45.8,11.09,68.96c2.38,43.65,7.83,87.66,22.7,128.99c4.93,13.08,10.18,26.6,19.97,36.89
		c8.01,8.59,19.95,13.73,31.76,12.22c0.51-0.18,1.52-0.53,2.03-0.71c-5.4901,2.86-12.07,1.49-17.94,0.8199
		c12.38,7.09,25.3,13.3701,39.01,17.48c18.1899,5.69,37.4,7.91,56.41,6.96c4.26-0.94,7.98-3.44,11.82-5.42
		c13.83-7.52,25.37-18.4,37.33-28.47c-15.9901,6.53-33.67,7.82-50.69,5.69c-15.03-1.88-29.65-6.47-43.33-12.92
		c-16.01-7.62-30.57-18.8-40.82-33.38c-8.87-12.54-14.61-27.68-14.46-43.17c1.43-19.99-3.88-39.52-7.88-58.91
		c-5.02-23.47-10.8799-47.08-21.8199-68.6c-7.44-14.66-17.91-28.16-31.8-37.19C765.7683,263.42,758.0783,259.01,750.2183,254.93
		 M470.6583,360.55c4.47-1.04,9.12-1.81,13.7-0.99c6.96,1.09,13.62,5.74,15.83,12.62c3.38,9.78-1.44,20,0.46,29.95
		c1.93,13.05,9.84,24.24,18.58,33.72c-11.81-21.47-16.69-46.7-13.27-71c0.74,11.51,1.6,23.09,4.73,34.25
		c5.66,21.94,17.07,42.42,33.01,58.55c2.73,2.57,5.3,5.45,8.73,7.11c17.15,8.69,34.64,16.88,52.97,22.78
		c22.47,7.49,46.49,10.75,70.09,8.13c-5.19-0.66-9.98-2.88-15.04-4.02c-22.96-2.23-46.77-4.26-67.61-15.01
		c-13.91-7.02-25.16-18.41-33.69-31.3c-12.11-18.37-19.69-39.16-27.89-59.44c-3.58-9.69-7.8701-19.14-10.82-29.04
		c4.08,7.46,7.64,15.2,11.44,22.81c8.74,17.21,16.16,35.1,25.87,51.81c8.47,14.34,19.04,28.02,33.47,36.77
		c17.19,10.59,37.46,14.26,57.11,17.36c-3.47-2.07-7-4.05-10.4-6.23c-31.12-20.34-59.85-44.8-82.58-74.37
		c-10.86-14.19-22.14-29.59-23.82-47.97c-8.65-4.77-18.21-8.4-28.19-8.65C491.4783,348.23,479.2383,352.15,470.6583,360.55
		 M533.1783,358.11c1.83,8.22,5.7,15.83,10.34,22.81c7.45,11.01,16.22,21.05,25.07,30.95c13.48,14.9,28.21,28.64,43.82,41.28
		c14.45,11.3,28.64,23.14,44.75,32.06c2.3,1.21,4.61,2.62,7.26,2.92c10.86,1.63,21.67,3.55,32.5,5.41
		c-7.13,1.78-14.47-0.9-21.7-0.28c7.06,2.45,14.68,2.54,21.95,1l-0.25,1.01c6.98-0.21,13.82,1.36,20.61,2.77
		c-18.98-13.68-38.72-26.26-58.68-38.44c-12.33-8.91-24.11-18.59-35.8-28.32c-16.48-13.78-32.96-27.56-49.29-41.52
		C560.5583,378.81,548.1083,366.74,533.1783,358.11 M483.4183,442.12c4.43,1.79,8.75,3.84,13.02,5.98c-1.1-1.38-2.24-2.74-3.33-4.12
		C489.8683,443.37,486.6683,442.62,483.4183,442.12z"/>
	<path d="M815.9984,94.79c29.9-1.95,60.17-3.99,89.9,0.95c34.26,5.62,66.47,20.91,94.05,41.77c39.9099,30,69.52,71.52,92.7,115.28
		c11.21,21.11,21,42.96,29.76,65.2c7.51,19.71,13.8,40.06,16.24,61.07c2.04,17.46,1.17,35.39-3.58,52.35
		c-3.22,10.87-8.16,21.75-16.53,29.61c5.1901-6.87,9.84-14.25,12.54-22.5c8.4099-24.64,6.8199-51.53,0.9-76.54
		c-5.8601-24.67-15.92-48.07-26.64-70.95c-19.16-40.98-41.7301-80.98-72.4401-114.5c-29.65-32.4-66.9-59.05-109.56-70.99
		c-22.38-6.34-45.79-7.7-68.93-7.74c-19.99,0.45-39.99,1.17-59.93,2.73c-21.52,1.85-43.34,5.29-63.06,14.54
		c-15.91,7.28-30.05,18.53-40.01,32.98c9.01-16.01,24.19-27.68,40.43-35.73C757.9583,99.52,787.3983,96.76,815.9984,94.79z"/>
	<path d="M772.5483,135.64c23.08-3.97,46.79-3.11,69.83,0.76c34.69,5.88,67.81,20.57,95.48,42.31
		c10.08,7.71,20.99,14.75,28.91,24.85c7.94,10.9,14.96,22.44,22.01,33.93c12.9,21.5,27.21,42.18,38.72,64.49
		c7.3401,14.35,13.39,29.43,17.05,45.16c5.17,22.21,6.15,45.54,15.13,66.76c3.9299,9.35,8.33,18.52,11.91,28.03
		c2.8199,7.37,7.5699,14.79,15.2899,17.68c2.8101,0.91,5.8301,0.58,8.74,0.91c-4.6499,0.59-9.6499,0.45-13.6399-2.31
		c-6.8-4.03-10.3-11.47-13.3501-18.42c-4.73-11.38-11.12-22.01-15.33-33.61c-7.88-22.13-8.79-46.02-16.36-68.24
		c-9-26.93-24.17-51.17-39.44-74.91c-10.04-15.42-19.32-31.32-29.61-46.57c-3.2599-4.64-6.34-9.46-10.36-13.5
		c-7.67-7.83-16.85-13.92-25.42-20.68c-28.73-22.61-63.61-36.76-99.68-42.13c-25.22-3.94-51.31-3.78-76.1,2.68
		c-24.5699,6.15-47.44,18.95-65.15,37.1c5.61-7.43,12.83-13.52,20.25-19.06C729.4484,147.82,750.6183,139.26,772.5483,135.64z"/>
	<path d="M1156.6383,188.9c-11.6899-20.05-30.03-35.18-42.0699-54.96c8.46,10.44,17.8199,20.11,27.2,29.73
		c11.67,11.88,21.73,25.58,27.73,41.23c16.4601,41.18,32.3301,82.84,42.1001,126.2c2.6899,11.23,4.5699,22.64,6.9299,33.94
		c0.8-3.79,1.04-7.71,2.28-11.41c0.65,8.78,0.38,17.59-0.01,26.36c1.83,14.61,2.66,29.54-0.12,44.1
		c-3.27,17.15-10.1,33.34-17.12,49.24c1.27-6.8,4.4-13.11,6.29-19.76c5.5299-17.06,9.34-34.97,8.24-53
		c-4.37,19.94-10.61,39.66-20.64,57.53c-2.85,4.78-7.14,9.59-13.13,9.8c5.95-2.31,9.03-8.19,11.02-13.87
		c8.61-23.72,15.76-48.05,20.1899-72.91c-5.5599-31.86-12.95-63.46-22.7999-94.29c-6.7301-21.29-14.39-42.27-21.8701-63.3
		C1166.5684,211.82,1162.9584,199.73,1156.6383,188.9z"/>
	<path d="M816.2584,148.48c17.99-0.34,35.86,3.5,52.97,8.85c19.29,6.38,37.43,16.12,53.68,28.29
		c15.11,11.41,28.58,25.27,38.25,41.63c8.44,14.3,14.11,29.96,21.03,44.99c5.83,12.68,12.87,24.8,17.99,37.81
		c6.03,15.28,7.87,31.84,14.01,47.09c8.79,21.3,22.58,40.04,32.02,61.03c6,12.82,11.5299,26.26,21.1599,36.89
		c8.17,9,19.6801,15.63,32.1001,15.53c-11.74,1.42-23.13-4.07-31.64-11.8c-9.42-8.45-15.76-19.63-21.3101-30.85
		c-4.45-9.04-9.03-18.03-14.28-26.63c-7.73-12.82-16.15-25.31-22.14-39.08c-5.89-12.86-8.32-26.88-12.38-40.33
		c-3.64-12.24-9.78-23.5-15.55-34.83c-8.84-16.69-14.61-34.8-23.28-51.57c-6.22-11.87-14.3199-22.72-23.91-32.08
		C903.6884,171.65,860.5383,152.38,816.2584,148.48z"/>
	<path d="M1216.9584,149.96c15.46,4.72,31.21,11,42.77,22.72c7.2,7.4,12.6899,16.23,18,25.03
		c22.4399,37.27,40.47,77.22,53.3799,118.77c4.3701,14.35,8.3401,28.85,11.1001,43.6c-12.8501-37.87-27.15-75.31-44.55-111.35
		c-9.14-19.12-19.01-37.9-29.59-56.27c-5.61-9.63-12.25-18.95-21.3101-25.65C1237.7383,159.67,1226.9883,155.37,1216.9584,149.96z"
		/>
	<path d="M715.5883,182.54c21.71-6.39,44.22-10.19,66.87-10.55c25.09-0.17,50.39,4.34,73.31,14.74
		c31.14,14.03,55.58,39.58,74.14,67.75c18.54,27.71,31.24,58.71,43.7,89.48c11.15,27.48,22.26,55.1,36.76,81.02
		c9.98,17.81,22.44,35.2,40.29,45.83c14.11,8.37,31.98,11.51,47.66,5.86c2.98-0.98,5.6699-2.61,8.5499-3.84
		c-6.3099,5.06-14.46,7.45-22.4199,8.2c-16.38,1.5-32.9501-4.18-45.76-14.32c-16.92-13.22-28.53-31.75-38.75-50.33
		c-13.53-24.53-23.75-50.67-34.57-76.45c-12.95-31.11-26.69-62.24-46.11-89.95c-10.36-14.71-22.29-28.44-36.34-39.75
		c-16.52-13.46-35.89-23.37-56.49-28.83c-36.23-9.71-74.66-7.04-110.83,1.58L715.5883,182.54z"/>
	<path d="M715.4183,211.14c13.13-2.37,26.84-4.72,40.01-1.33c10.41,2.62,19.39,8.86,27.66,15.48c14.43,11.4,26.79,25.65,34.86,42.26
		c8.53,17.77,13.5699,37.01,17.11,56.34c6.28,35.79,8.16,72.68,20.74,107.09c6.23,17.35,15.38,34.04,28.83,46.87
		c14.68,14.86,34.59,25.08,55.68,25.95c0.61-0.57,1.24-1.12,1.89-1.67c-8.77-4.77-15.5601-12.42-21.5601-20.24
		c-11.42-15.57-19.89-32.99-29.23-49.83c-12.78-23.6-25.79-47.8-30.45-74.54c-4.47-24.35-3.65-49.5-10.11-73.51
		c-3.94-14.64-10.86-28.92-22.11-39.33c-5.67-5.62-12.56-9.74-18.65-14.83c13.15,6.97,25.82,15.93,33.99,28.63
		c10.54,16.27,14.85,35.6,17.4301,54.56c2.71,20.65,3.74,41.76,10.42,61.64c6.74,20.55,17.18,39.58,27.04,58.74
		c6.79,12.86,12.92,26.08,20.38,38.58c7.79,13.07,17.89,25.51,31.8,32.34c7.44,3.79,15.83,5.21,24.13,4.96l0.03,0.42
		c-5.35,0.1-10.76,0.74-16.02-0.55c-5.9-1.05-11.22-3.9-16.74-6.06c-0.49,0.49-0.97,0.98-1.44,1.48c-3.91-0.6-7.88-0.18-11.77-0.82
		c-18.24-2.48-35.15-11.62-48.42-24.19c-19.88-18.89-31.26-44.9-37.8-71.13c-10.37-41.41-10.75-85.01-25.26-125.43
		c-6.06-17.36-16.17-33.29-29.64-45.84c-10.32-9.61-21.3-19.65-35.23-23.47c-8.98-2.37-18.37-1.79-27.48-0.67
		c-21.79,2.81-43.52,6.15-65.33,8.66C678.4783,217.66,697.0183,214.71,715.4183,211.14z"/>
	<path d="M1279.3184,255.99c13.4,16.24,25.02,34.04,33.87,53.17c9.2999,19.78,14.4399,41.26,17.2,62.87
		c2.26,18.84,4.1801,38.02,1.25,56.9c-5.23,32.9-27.35,62.79-57.6699,76.78c-1.63-2.13-1.62-4.84-0.25-7.08
		c-0.17,1.72-1.3301,4.6,0.84,5.43c28.73-16.7,48.62-47.79,51.61-80.92c1.41-16.09-0.12-32.24-1.88-48.23
		c-2.54-21.83-7.12-43.55-15.4301-63.95C1301.1183,291.58,1290.1483,273.74,1279.3184,255.99z"/>
	<path d="M1251.4384,258.79c16.86,33.79,26.0499,71.49,26.1,109.28c3.88,25.21,6.3199,51.29,0.53,76.41
		c-3.39,14.48-9.4501,28.82-19.78,39.73c14.6801-24.23,18.01-53.37,16.66-81.18c-4.54,27.1-13.5901,53.73-28.7101,76.8
		c-1.47,2.49-4.34,3.21-7.0399,3.14c2.4199-0.76,5.1-1.51,6.12-4.14c10.5-20.63,17.5-42.96,21.6899-65.69
		c2.13-10.62,2.65-21.45,4.02-32.16c-1.63,4.46-1.48,9.27-2.35,13.88c-3.05,18.76-8.4301,37.54-18.84,53.62
		c-6.8301,10.58-15.8401,19.96-26.88,26.14c-5.6801,3.22-13.36,5.59-19.24,1.58c5.1399,1.12,10.46-0.16,14.75-3.16
		c15.01-10.15,25.7-25.51,33.2899-41.74c8.13-17.62,12.92-36.49,18.88-54.9c1.4301-10.43-0.28-20.91-0.99-31.33
		c-0.74-22.48-5.97-44.54-12.04-66.11C1255.8384,272.15,1252.8683,265.68,1251.4384,258.79z"/>
	<path d="M1337.8284,262.54c6.0499,0.02,10.7899,4.31,14.21,8.88c28.72,36.89,38.11,87.41,26.58,132.51
		c-2.75,9.9-6.0199,19.83-11.2699,28.71c6.6399-21.21,10.6499-43.42,9.9099-65.71c-0.5699-34.07-10.77-67.91-29.14-96.6
		c-2.45-3.49-5.83-6.72-10.26-7.21C1337.8484,262.98,1337.8384,262.68,1337.8284,262.54z"/>
	<path d="M780.5283,288.16c9.84,12.2,15.85,27.01,20.34,41.9c6.81,24.27,9.62,49.4,15.08,73.97c6.9,31.94,17.03,63.53,33.55,91.88
		c7.94,13.45,18.22,26.29,32.34,33.58c14.9,7.82,32.28,8.5,48.72,7.42c10.15-0.61,20.13-2.74,30.23-3.71
		c-15.14,3.96-30.64,7.06-46.32,7.55c-12.6-0.03-25.5-1.95-36.77-7.84c-14.6801-7.4-25.45-20.54-33.89-34.32
		c-17.8-29.87-28.2-63.55-34.56-97.57c-5.3-27.63-6.82-56.03-15.23-83.02C790.8583,307.5,786.0383,297.61,780.5283,288.16z"/>
	<path d="M1191.4183,365.96c-1.2-18.69-5.0601-37.12-10.76-54.92c10.85,19.14,15.89,41.11,17.39,62.93
		c1.39,22.45-0.9401,45.09-6.41,66.89c-2.84,11.36-8,22.7-17.39,30.11c-1.4199,0.75-0.51,2.29-0.4399,3.47
		c-0.52-1.03-1.04-2.07-1.51-3.09c8.8199-8.5,12.59-20.62,14.71-32.36C1191.1683,414.92,1193.0984,390.36,1191.4183,365.96z"/>
	<path d="M1389.3683,349.44c3.9801,5.3,5.7301,11.83,8.39,17.81c4.78,2.4,8.05,6.95,11.42,10.97c13.02,17.2,16.25,39.92,13.77,60.9
		c-2.41,20.36-9.75,40.15-21.3101,57.1c-8.95,12.8-21.58,23.12-36.28,28.58c14.92-2.8,28.63-10.81,38.8-22.02
		c6.35-6.92,11.72-14.71,16.08-23.02c4.4601-10.04,8-20.5,10.55-31.18c2.27-10,2.49-20.74-1.1801-30.43
		c-1.33-3.96-3.7999-7.36-5.73-11.01c9.2001,7.87,13.7001,20.38,13.24,32.32c0.4601-0.12,1.38-0.36,1.8401-0.47
		c-0.4501,1.89-0.91,3.78-1.37,5.67c8.61,7.8,11.51,20.21,9.63,31.39c-2.39,13.47-10.74,25.02-20.3501,34.38
		c-9.6599,9.9-21.11,17.83-33.09,24.63c7.0701,0.81,14.05-1.53,20.42-4.4c9.39-4.53,18.02-11.36,23.0599-20.64
		c5.9301-9.87,9.3101-20.94,12.48-31.92c1,11.83-1.4099,23.88-6.74,34.48c-6.34,13.42-20.13,22.64-34.7,24.6
		c-5.1,0.67-10.53,0.44-15.1901-1.92c-1.6599,0.83-3.23,1.79-4.6799,2.92c-3.35,0.64-6.36,2.3-9.52,3.47
		c-6.4299,2.43-13.04,4.39-19.77,5.73c8.23-3.98,16.63-7.67,24.55-12.3c-10.5801,1.77-21.72,2.65-31.23,8.05
		c-2.79,1.49-5.0701,3.71-7.63,5.51c2.87-5.1,7.62-8.92,12.7899-11.51c12.2101-6.43,26.77-6.33,38.8301-13.1
		c2.5599-3.53,4.51-7.47,6.84-11.16c-6.91,5.53-14.5599,10.34-23.09,12.92c-10.26,3.33-21.1801,3.56-31.85,3.07
		c-10.29-1.02-20.8201-2.55-29.9501-7.71c6.6,1.54,13.1,3.92,19.98,3.86c18.29,1.04,35.8501-7.82,48.4701-20.61
		c12.4099-12.96,20.4199-29.52,25.7599-46.48c6.7101-22.21,8.53-46.96-0.37-68.82c-3.2699-8.09-8.1399-15.62-14.4299-21.67
		c6.46,22.27,6.1,46.74-2.6,68.37c-8.5701,21.62-24.5,40.75-45.3,51.47c4.62-4.64,9.89-8.61,14.1801-13.61
		c15.6799-16.81,26.7999-38.04,30.76-60.75C1398.7383,391.71,1396.0583,369.79,1389.3683,349.44 M1431.8983,467.67
		c-5.99,18.86-16.1699,36.02-27.6,52.05c19.47-13.04,32.6899-35.03,34.76-58.4c0.15,0.02,0.4399,0.04,0.58,0.05
		c0.9601,9.07-0.35,18.21-3.03,26.89c8.2101-12.45,10.01-29.9,1.15-42.51C1435.3683,452.94,1434.4684,460.53,1431.8983,467.67z"/>
	<path d="M1334.3683,359.76c11.8,17.9,18.55,38.89,20.5601,60.18c1.72,19.87-0.28,40.24-7.12,59.05
		c-4.33,11.55-11.7001,23.06-23.4301,28.08c4.99-4.05,9.55-8.71,12.55-14.47c5.86-10.58,8.38-22.59,10.24-34.43
		c4.1-26.61,1.58-54.07-6.38-79.73C1339.0784,372.06,1336.1984,366.08,1334.3683,359.76z"/>
	<path d="M1404.4183,407.98c0.53-6.09-0.02-12.21,0.4399-18.29c8.0701,37.18-2.0399,77.99-26.6799,107
		c-7.92,9.04-18.53,16.37-30.65,18.07c-7.51,1.03-15.77,0.28-22.2-4.03c11.35,3.79,24.0499,1.56,33.98-4.9
		c11.2999-7.36,19.2999-18.67,25.78-30.27C1396.6383,454.92,1403.0383,431.55,1404.4183,407.98z"/>
	<path d="M1337.6183,390.58c4.01,23.32,2.14,47.45-3.4299,70.36c-2.8101,10.82-6.14,21.61-11.17,31.62
		c-3.2999,6.37-7.87,12.6-14.52,15.72c-3.5199,1.74-7.62,1.43-11.26,0.3c3.51-0.14,7.27-0.17,10.1801-2.46
		c7.2-5.25,10.7-13.93,13.47-22.1c8.29-25.21,13.26-51.46,15.41-77.9C1336.8284,400.95,1336.8484,395.73,1337.6183,390.58z"/>
	<path d="M446.7383,450.18c2.63,5.63,3.78,11.84,5.92,17.67c6.99,20.94,14.68,41.86,26.29,60.74c8.88,14.86,20.04,28.45,33.49,39.39
		c13.81,11.11,30.22,18.41,46.93,23.97c15.1,4.76,30.24,9.77,45.98,11.95c13.42,1.97,27.14,0.37,40.19-3.05
		c16.34-4.1,31.7-11.09,47.26-17.38c-10.72,6.33-22.06,11.58-33.52,16.4301c-20.64,8.54-43.7,12.41-65.77,7.7
		c-20.4301-4.42-40.75-10.1-59.8-18.83c-14.6-6.64-27.46-16.54-38.56-28.02c6.59,11.71,14.72,22.9,25.62,30.95
		c12.3,8.98,26.9901,13.92,41.69,17.34c23.86,5.35,48.52,8.51,72.97,6c18.68-1.89,37.26-7.5,52.84-18.2
		c-0.17-0.3-0.5099-0.92-0.68-1.22c0.98,0.1,1.98,0.17,2.98,0.2c-0.9,0.7-1.8,1.41-2.67,2.16c-3.85,26.86-6.02,53.95-7.18,81.06
		c-0.41,11.69-0.97,23.39-0.37,35.06c-0.82,8.25-0.09,16.52-0.1,24.79l-1.29-0.24c-1.54,14.06-2.55,28.18-4.07,42.25
		c-1.72,19.87-2.23,40.9,6.02,59.5099c-1.07-18.11-1.02-36.28-0.04-54.39c-0.75-15.59-2.09-31.19-1.82-46.81l1.35,0.05
		c0.12,11.85,0.68,23.72,1.7,35.53c3.09,19.58,2.89,39.4901,5.84,59.09c4.82,36.07,11.97,71.8,20.57,107.16
		c10.96,45.47,23.33,90.59,33.68,136.21c7.04,28.9,22.94,54.48,38.29,79.59c10.39,16.3301,20.59,32.77,30.86,49.17
		c20.4,31.72,42.83,62.13,67.12,90.99c13.07,15.52,25.64,31.54,40.13,45.8c13.22,13.25,28.28,24.97,45.43,32.6599
		c38.65,17.4501,82.76,22.88,124.39,14.52c33.88-6.98,66.53-21.66,93.03-44.0699c13.37-11.13,23.5599-25.41,32.91-39.9301
		c8.4399-12.9399,16.21-26.3199,24.8999-39.1c12.55-18.71,25.9301-36.85,38.91-55.26c20.36-28.91,39.9301-58.79,53.1-91.76
		c16.15-40.33,23.88-83.58,26.67-126.8c3.75-47.41,3.92-95.03,1.67-142.51c-4.8301-98.66-20.54-196.64-44.2301-292.48
		c-1.83-8.13-4.47-16.09-5.87-24.31c20.17,73.93,35.42,149.27,44.8101,225.34c1.99,14.97,3.1,30.28,4.9299,45.11h0.5
		c0.6801,1.92-0.7699,4.45-0.1899,6.66c4.17,50.29,5.12,100.83,3.3099,151.25c15.55-10.27,24.2201-27.44,31.91-43.8
		c6.9301-15.73,13.53-31.6,20.59-47.27c9.39-21.61,19.7101-42.81,28.4701-64.7c7.21-18.08,13.45-36.77,15.72-56.19
		c2.22-19.75-0.09-40.35-8.77-58.39c-1.42,3.17-2.64,6.43-4.08,9.59c-2.51,5.64-6.23,10.83-7.8101,16.84
		c3.97,19.08,1.35,40.13-9.53,56.57c1.91-17.71,5.04-35.28,7.39-52.95c-4.7,7.56-10.21,14.74-17.34,20.16
		c-3.55,2.97-7.72,5-11.65,7.37c-3.0599,3.37-5.5699,7.25-9.12,10.1801c3.98-13.16,10.0601-25.55,14.8401-38.4
		c7.8999-30.82,11.1899-62.99,8.35-94.72c-1.7101,5.69-2.01,11.6801-2.7101,17.55c-1.95,18.61-2.6799,37.35-5.3199,55.88
		c-2.21,17.03-6.79,33.77-14,49.37c-2.74,6.58-7.0601,12.54-8.35,19.67c-4.6,16.75-8.16,33.88-8.35,51.31
		c-3.2001-12.62-2.9401-25.82-0.8-38.59c-0.39,0.57-1.16,1.71-1.55,2.29c-0.2-0.57-0.6-1.69-0.7999-2.26
		c0.0499,7.31-0.99,14.6-3.4501,21.49c-4.23,11.88-2.47,24.62-2.83,36.95c-3.36-7.59-5.1-15.79-5.8101-24.03
		c-1.3799,10.78-0.21,21.73-1.7699,32.48c-1.4801-11.14-4.2301-22.3-3.2001-33.62c0.4501-6.03,3.1901-11.51,5.35-17.06
		c3.2101-8,5.87-16.31,6.79-24.91c1.6901-15.43-0.65-30.87-1.23-46.29c3.49,10.18,5.6899,20.78,7.02,31.46
		c6.7999-10.44,13.2899-21.66,14.88-34.23c1.63-8,1.37-16.45-2.02-23.98c2.79,3.24,4.61,7.14,5.87,11.21
		c2.67-16.2599,3.65-32.73,4.75-49.14c1.6-23.94,1.75-47.95,2.4-71.92c5.5399,33.02,5,66.8,2.01,100.06
		c2.5599-17.43,4.3099-35.04,8.85-52.1c1.11-4.13,1.9299-8.45,4.3099-12.09c-1.34-18.31-4.8199-36.39-9.21-54.2
		c6.83,14.29,11.0701,29.71,13.77,45.28c4.6,27.75,3.55,56.44-3.14,83.77c-1.26,5.1-3.13,10.08-3.48,15.37
		c-0.99,10.3-4.9,20.02-9.58,29.15c23.2799-20.34,35.2699-52.85,30.6-83.4301c0.4199,0.55,1.26,1.64,1.6799,2.19
		c2.51-21.52,2.25-43.39-0.84-64.84c-1.9301-12.08-5.3199-24.53-13.4-34.04c-9.9199-11.31-23.63-18.42-37.3199-24.1299
		c12.88,1.47,25.1699,7.15,35.5599,14.8c12.75,9.42,18.98,25.07,21.17,40.33c3.27,22.9301,2.14,46.78-4.95,68.92
		c1.99,6.06,3.11,12.36,3.5,18.73c3.6499-12.75,4.7899-26.13,3.25-39.3c7.24,14.13,6.3099,31.06,1.5599,45.83
		c11.9301,19.44,15.13,43.0699,12.66,65.46c-2.49,24.26-11.35,47.24-20.74,69.56c-6.12,14.12-12.73,28.03-19.12,42.03
		c-8.88,19.03-17.64,38.14-27.2201,56.84c-8.0199,15.27-18.22,30.61-33.8999,38.86c-0.4701,13.39-1.6001,26.74-2.53,40.1
		c-3.41,43.45-12.14,86.8701-29.55,126.97c-2.49,4.74-4,9.88-4.61,15.2c22.16,9.75,44.47,19.36,65.4401,31.54
		c27.7899,15.95,53.49,37.0699,70.11,64.83c1.25-0.13,2.62-0.52,3.7999,0.25c102.03,52.97,204.0601,105.96,306.0901,158.9301
		c27.6899,14.63,56.7799,26.51,83.99,42.0699c23.08,13.16,45.2999,29.39,60.23,51.77c7.53,10.66,12.3099,22.86,18.2999,34.39
		c18.5801,37.17,37.17,74.34,55.76,111.52c4.3101,9.0699,9.6001,17.74,12.53,27.4099c40.2001,114.17,53.24,237.54,39.36,357.7001
		c-5.5,52.8101-13.15,106.1499-6.6699,159.23h-4.38c-5.6001-48.03-0.1001-96.3601,5.13-144.15c2.8899-26.2,5.6-52.4399,6.49-78.7999
		c3.6599-98.3601-10.87-197.4401-43.25-290.42c-2.4701-8.39-6.6001-16.09-10.52-23.85c-12.34-24.67-24.67-49.3401-37.01-74.01
		c-10.24-20.7001-20.85-41.22-30.78-62.0601c-7.23-14.2899-17.11-27.1899-28.97-37.9399c-20.1-18.1-44.23-30.8301-68.34-42.6801
		c-16.13-7.95-32.54-15.2999-48.52-23.5499c-103.52-53.78-207.0801-107.48-310.5801-161.3
		c10.9901,20.0601,15.7101,43.09,15.4401,65.84c0.33,20.04-2.3,39.9501-4.4301,59.8301
		c-13.7799,124.73-27.5499,249.46-41.34,374.1799c0.42,2.8301-2.74,1.48-4.41,1.75c0.88-17.1-9.22-32.4099-21.24-43.64
		c-14.73-14.2899-33.62-22.9099-50.3099-34.5199c-13.62-9.1901-26.25-20.9401-32.9501-36.2301
		c-8.5399-19.0199-9.12-40.1699-13.08-60.34c-2.72-13.9-7.23-28.0599-16.8-38.85c-6.08-6.97-14.1899-13.1801-23.75-13.76
		c-8.9099-0.63-17.11,4.12-23.47,9.9399c-10.15,9.53-17.34,21.9501-21.8099,35.0601c-6.52,19.85-6.4,41-10.16,61.4
		c-4.6,25.24-14.7,49-25.23,72.26c-48.9601,105.3099-86.86,215.27-123.7101,325.27c-9.7899,29.1901-20.75,58.5499-23.0199,89.5199
		c-1.55,19.77,1.8899,40.5,12.96,57.27c-1.2,0.78-2.4,1.5701-3.58,2.4001c-11.05-16.5601-14.8101-36.9902-13.8301-56.6301
		c1.53-32.23,13.01-62.73,23.05-93.04c36.37-108.26,73.48-216.58,121.38-320.3899c9.14-20.1001,18.27-40.3401,24.13-61.6801
		c6.0599-20.45,6.24-41.95,10.12-62.8101c2.78-15.6899,9.25-30.71,18.88-43.4199c53.85-118.4,83.35-247.74,86.9399-377.75
		c-4.6799,26.1899-7.84,52.65-10.28,79.15c-1.5399,14.34-2,28.7799-3.4199,43.13c-2.66-45.1001,2.37-90.4801,12.99-134.3301
		c-26.4401,52.24-65.54,96.48-95.59,146.5c-8.65,13.8301-17.1801,27.8101-27.5,40.48c-12.2101,14.63-27.52,26.4601-43.9401,36.01
		c-34.89,20.2201-75.48,31.2101-115.89,29.11c-22.31-0.98-44.45-5.5599-65.34-13.4299c-13.73-5.05-26.9-11.8-38.54-20.6901
		c-17.6201-13.1699-32.25-29.7699-46.28-46.59c-11.26-13.7-22.74-27.22-33.65-41.1899c-22.49-28.79-43.12-59.02-61.93-90.3401
		c-6.52-10.25-12.8-20.6499-19.47-30.7899c0.81,11.7,0.79,23.47,2.66,35.0699c4.68,34.34,7.5,69.45,1.37,103.8l-1.09,0.11
		c1.46-16.77,1.34-33.63,0.48-50.42c-0.44-6.23-0.53-12.5-1.64-18.66c0.85,49.4401-1.56,99.03,3.72,148.3101
		c4.69,45.55,15.59,90.53,32.84,132.96c20.42,49.9701,50.9301,96.51,92.33,131.5701c-4.94,10.02-6.39,21.97-2.6,32.61
		c4.67,13.5699,15.44,24.01,27.03,31.95c18.19,12.29,39.27,19.05,59.27,27.7001c16.55,7.2699,33.02,16.0399,45.3099,29.59
		c9.66,10.46,15.63,23.83,18.7101,37.62c3.4199,14.72,4.14,29.87,5.1,44.9c2.8199,45.88,5.39,92.0699,0.08,137.87
		c-4.12,36.26-14.24,71.42-21.8999,107.0099c-3.89,18.4302-7.78,37.1301-7.03,56.0801c0.23,7.74,0.85,15.48,2.0399,23.1399
		c0.38-3.25,0.8301-6.46,1.5-9.6299c1.3701,0.3301,2.76,0.6899,4.16,1.0701c-2.36,9.0598-1.48,18.6799,1.7001,27.4299h-9.0601
		c-2.47-16.9199-5.25-33.9399-4.59-51.1001c0.4399-17.5999,4.35-34.8499,7.98-52c7.55-34.3799,17.1801-68.4299,21.0599-103.4999
		c5.63-49.48,2.0701-99.34-1.0099-148.87c-1.3501-18.48-3.54-37.5901-12.62-54.0801c-7.8101-14.33-20.97-24.8999-35.05-32.6899
		c-20.35-11.46-43.05-17.78-63.75-28.51c-12.54-6.4399-24.49-14.6-33.48-25.6c-7.2-8.89-12.1801-20.04-11.82-31.64
		c-0.13-6.26,1.47-12.38,3.68-18.1801c-14.18-12.47-27.42-26.0699-39.01-40.98c0.1,0.72,0.29,2.17,0.39,2.89
		c-0.94,0.2-2.82,0.61-3.76,0.8101c-3.16-9.17-11.87-15.0701-20.87-17.62c-8.84-2.63-19.23-2.4901-26.95,3.08
		c-6.2,4.5699-8.01,12.6899-8.81,19.92c-1.46,16.4399,1.88,32.7799,4.39,48.95c0.24-0.73,0.71-2.1801,0.95-2.91
		c37.67,11.47,72.45,32.3301,100.19,60.29c22.97,23.09,41.6801,51.52,48.97,83.59c6.34,27.99,3.56,56.92,0.47,85.15
		c-11.64,100.5-14.42,202.02-8.15,303h-4.4c-5.81-99.3899-3.55-199.28,7.71-298.22c3.08-28.03,6.49-56.62,1.11-84.5901
		c-6.64-34.3999-26.9-64.74-51.81-88.7699c-26.51-25.87-59.33-45.26-94.75-56.11c4.14,22.1399,4.51,45.47-2.12,67.1699
		c-4.44,14.5801-13.66,27.74-26.53,36.0701c2.07-8.8501,2.1201-18.2001-0.95-26.8201c-5.85-18.62-20.09-32.63-29.63-49.24
		c-17.6-29.62-28.21-62.6799-37.51-95.67c-6.29-22.4199-11.94-45.0199-18.71-67.3099c-13.52-45.49-24.97-92.02-27.45-139.59
		c-2.17-39.6001,2.51-79.9401,17.04-117.01c9.85-25.51,24.27-49.4,43.27-69.15c-19.27,8.7-39.25,15.78-58.21,25.17
		c-32.32,15.9299-64.83,32.4299-100.04,40.99c-13.7599,3.2999-27.84,5.3999-42,5.58c-3.37-0.17-6.05,2.2-8.95,3.53
		c-118.92,62.46-237.85,124.9099-356.79,187.36c-3.74,2.11-8.1,3.54-10.87,7.02c-7.44,8.5599-14.91,17.08-22.38,25.61
		c-3.6,3.8199-6.64,8.11-9.46,12.54c-21.35,32.22-38.83,67.1799-50.55,104.0399c-5.5,50.4501-10.36,100.99-15.62,151.48
		c-14.48,141.9701-29.02,283.9401-43.47,425.92h-4.3c19.67-192.63,39.26-385.26,59.05-577.87c11.24-36.03,28.16-70.22,48.59-101.91
		c3.82-5.7999,7.46-11.75,12.25-16.8099c7.95-9.05,15.87-18.13,23.79-27.1901c1.76-2.08,4.29-3.1899,6.64-4.4199
		c122.76-64.3301,245.37-128.99,368.1801-193.2101c12.99-0.62,26.09-1.5399,38.84-4.46c39.89-8.55,76.12-28,112.53-45.62
		c20.45-9.47,41.93-16.66,61.88-27.21c4.52-2.6801,8.2-6.52,12.54-9.4701c5.4-3.5699,8.95-9.13,13.23-13.86
		c3.53-4.38,7.8-8.0599,11.85-11.9199c0.91-4.53-2.39-8.0701-4.38-11.7301c-8.9-15.3999-17.26-31.24-22.98-48.12
		c-3.66-10.6599-5.54-21.7999-8.29-32.71c-4.91-21.61-10.72-43.01-15.76-64.59c-0.41,0.86-1.24,2.5699-1.65,3.42
		c0.37-1.45,0.82-2.85,1.3-4.24c-5.05-20.43-10.29-40.81-14.99-61.32c-2.34-8.88-3.53-18.07-6.39-26.78
		c-0.21-4.73-1.54-9.29-2.35-13.92c-2.3-11.72-4.25-23.51-6.17-35.29c0.09,10.18,2.95,20.03,4.34,30.07
		c0.8,6.36,2.72,12.5099,3.52,18.87c-1.37-2.55-2.34-5.28-3.48-7.91l-0.43,3.26c-4.84-12.23-7.21-25.23-9.41-38.14
		c-2.27-9.44-8.08-17.49-10.98-26.7c-5.98-17.8-5.64-36.98-3.35-55.4c2.63-19.96,5.61-39.88,9.2-59.69
		c0.73-3.69,0.51-7.46,0.7-11.18c0.41-29.38,2.33-58.75,5.69-87.94c0.75-7.4,2.2-14.74,2.45-22.19
		c-15.35,12.69-34.82,19.48-54.43,21.82c-24.68,2.97-49.74,0.02-73.79-5.89c-1.27,10.62-0.15,21.38,2.3,31.75
		c7.67,33.61,29.24,62.3,35.57,96.32c2.55,12.34,1.29,25.04,3.13,37.45c-0.5,0.6-1.32,0.51-1.69-0.17
		c-1.4-4.84-1.83-9.88-2.99-14.7599c-2.26-1.79-4.98-3.1-6.6-5.58c-3.85-5.33-4.2-12.13-5.75-18.3c-1.52-6.59-4.79-12.64-8.98-17.89
		c-8.02-9.89-18.17-18.01-25.11-28.79c-5.98-9.57-8.96-20.7-10.64-31.77c-1.95-16.08-0.63-33.14,6.57-47.84
		c-0.44,3.78-1.43,7.46-1.96,11.23c-2.63,19.2-0.24,39.13,7.35,56.99c8.14,19.44,29.35,30.22,35.38,50.85
		c2.25,6.7,1.54,13.9,3.22,20.7c0.9,3.86,3.49,6.99,6.44,9.52c-0.97-12.33-3.89-24.46-8.22-36.03
		c-8.35-22.76-20.86-43.89-27.23-67.39c-4.19-15.07-5.71-31.21-1.73-46.5c-14.1-3.7599-28.08-9.15-39.61-18.3
		c-11.31-8.82-19.13-21.26-24.99-34.18c-1.51-3.06-2.5-6.4-4.54-9.17c-20.9-26.21-32.06-58.6-39.76-90.83
		C448.1383,458.12,446.4383,454.24,446.7383,450.18 M1404.1183,717.06c-1.4299,6.11-4.8099,11.71-5.0699,18.07
		C1401.6383,729.4,1402.5884,723.12,1404.1183,717.06 M1380.9484,759.7c0.6899,7.58,0.2899,15.17-0.6801,22.7
		c3.3301-5.07,3.91-11.19,5.4601-16.91c1.2699-5.61,2.8099-11.16,4.2599-16.73C1386.9883,752.42,1383.9083,756.02,1380.9484,759.7
		 M1328.4784,1151.16c-1.01,37.6899-3.66,75.37-8.8201,112.74c-12.1799,90.22-37.0599,178.6699-73.45,262.11
		c6.5399-5.42,14.5399-9.67,23.21-9.78c8.95-0.2999,17.39,4.03,23.85,9.9501c10.79,9.5599,17.27,23.0099,20.77,36.7999
		c5.87,22.15,5.26,45.8301,14.24,67.17c5.37,13.2,15.49,23.83,26.85,32.16c16.67,12.59,36.0901,21.2,51.9501,34.9199
		c10.39,8.92,19.58,19.8301,24.15,32.91c2.48-19.38,4.33-38.84,6.58-58.24c10.5599-95.65,21.14-191.29,31.6799-286.9301
		c2.55-24.9399,6.41-49.85,5.9401-74.98c-0.13-18.1799-3.28-36.54-10.8201-53.16c-8.4199-18.63-21.46-34.89-36.58-48.51
		C1399.2783,1182.46,1363.5283,1166.5,1328.4784,1151.16 M756.0883,1172.61c-5.04,6.6-11.61,11.92-18.69,16.23
		c-6.78,5.5701-12.8,12.01-18.5,18.67c-23.66,28-38.64,62.6-46.11,98.3099c-5.68,26.9801-6.67,54.77-4.82,82.2201
		c3.18,45.37,14.28,89.72,27.22,133.1699c6.99,23.12,12.77,46.5801,19.41,69.8c11.03,38.5699,24.17,77.64,48.72,109.95
		c10.6,14.39,20.43,30.88,20.21,49.36c9.69-9.0699,15.51-21.5399,18.44-34.33c4.32-19.08,3.66-39.01,0.01-58.14
		c-2.63-15.47-5.45-31.0699-5.01-46.83c0.44-8.84,1.85-18.53,8.22-25.2001c7.18-7.33,18.41-8.84,28.13-7.1799
		c7.2599,0.99,13.92,4.28,19.95,8.33c-16.4-22.3099-29.78-46.76-40.77-72.14c-17.19-40.1-28.41-82.6599-34.27-125.86
		c-6.99-51.72-5.09-103.98-5.31-156.01c0.12-25.4299-0.05-50.89-2.04-76.26C765.0583,1161.09,760.8883,1167.2,756.0883,1172.61z"/>
	<path d="M1116.5884,462.17C1117.1683,462.69,1117.1683,462.69,1116.5884,462.17z"/>
	<path d="M1474.2883,476.89c-2.0699,12.14-6.92,23.65-12.49,34.57c-2.61,5.34-6.49,9.93-11,13.77
		c10.54-1.08,12.72-12.95,18.54-19.75c0.46,4.76-0.9301,9.43-1.63,14.02c3.4399,3.91,6.2799,8.97,5.01,14.36
		c-1.87,7.18-8.54,11.5-14.3601,15.34c-3.24,2.16-7.2699,1.63-10.87,1.07c7.3501,5.23,12.67,13.56,12.9501,22.73
		c0.16,6.28,0.74,13.29-2.9,18.78c0.36-6.69-0.95-13.33-2.45-19.8101c-1.4401-5.9399-5.0801-11.1299-9.7201-15.03
		c-7.2799-6.24-14.61-13.13-24.12-15.67c12.4601,8.75,24.1901,19.49,30.5701,33.6c2.5599,5.15,3.66,10.82,4.99,16.37
		c-0.1901,5.8,0.13,11.82-2.1801,17.29c-0.77-9.82-2.96-19.6-7.39-28.44c-6.8099-14.64-18.08-26.4-27.73-39.13
		c-2.62-0.18-5.25-0.06-7.85-0.2c5.3-3.09,11.86-3.16,17.64-1.48c5.9,1.71,10.97,5.33,15.88,8.93c3.21-0.61,6.8199-0.72,9.45-2.93
		c2.54-2.25,4.89-4.71,7.5-6.89c-10.74,2.4-22.2,2.38-32.89-0.27c9.16-3.95,19.29-4.68,29.15-4.97c3.14-0.07,6.24-0.82,9.15-2.04
		c0.3-3.09-0.34-6.14-1.23-9.08c-1.86,3-4.08,6.04-7.47,7.4c-5.79,2.62-12.2101,0.38-18.25,1.22
		c-5.42,2.08-10.7101,4.55-16.3201,6.05c6.84-6.34,15.3301-10.48,22.52-16.38c5.48-4.42,8.6901-10.83,12.03-16.86
		C1463.8583,494.54,1468.6583,485.46,1474.2883,476.89z"/>
	<path d="M725.6583,505.35C726.0783,505.81,726.0783,505.81,725.6583,505.35z"/>
	<path fill="#AFAFAF" d="M1307.6383,526.52c1.41-0.11,1.3201,2.39,0.5801,3.16C1306.7683,529.8,1306.8384,527.26,1307.6383,526.52z"
		/>
	<path fill="#444844" d="M978.6683,536.03c-0.28-1.42,0.27-1.9901,1.64-1.72C980.5483,535.7,979.9984,536.27,978.6683,536.03z"/>
	<path d="M1319.3583,537.68c13.02,19.33,20.1801,42.12,23.52,65.06c0.29-0.11,0.88-0.33,1.17-0.44
		c2.21,22.88,6.67,45.54,12.86,67.68c3.5,12.4,7.64,24.67,9.95,37.38c5.3501,28.25,3.2101,57.32-1.73,85.46l-1.21,0.11
		c0.28-8.66,0.46-17.31,1.25-25.93c-0.12-23.76-1.1899-47.79-7.51-70.82c-6.1899-22.59-12.74-45.41-13.6-68.95l-0.37-0.11
		c-0.9401,3.63,0.01,7.69-1.8101,11.03c-2.63-21.54-5.95-43.06-11.8199-63.9901C1326.8883,561.88,1322.6283,549.92,1319.3583,537.68
		z"/>
	<path d="M1327.0684,538.85c14.73,10.32,22.95,27.27,28.14,44.02c7.02,23.79,11.14,48.39,12.98,73.11
		c0.97,16.17,1.33,32.5-0.4,48.62c-2.64-27.41-5.22-54.89-10.14-82.03c-4.02-21.13-7.33-42.76-16.34-62.48
		C1337.8184,552.22,1332.6083,545.35,1327.0684,538.85z"/>
	<path d="M1355.4183,547.96c15.64,8.5099,24.49,25.47,28.67,42.19c4.99,21.28,4.5199,43.59,0.9299,65.06
		c-1.5699,8.32-3.41,16.67-6.52,24.57c0.88-11.92,2.5901-23.8,2.86-35.77c0.67-22.64,0.1901-45.94-7.4399-67.53
		C1370.1483,565.64,1363.6783,555.89,1355.4183,547.96z"/>
	<path d="M1384.4283,555.38l0.45-0.08c9.73,18.09,15.8201,38.13,17.28,58.64c1.6901,19.12-0.8099,38.46-6.15,56.85
		c-4.5499,16.08-10.0299,32.32-9.61,49.2401c-0.16,5.2,1.23,10.24,1.9301,15.34c-5.1901-10.98-5.89-23.59-4.54-35.51
		c2.21-19.61,9.52-38.24,11.5-57.89C1398.7883,612.76,1394.3983,582.95,1384.4283,555.38z"/>
	<path d="M1417.1683,567.82c6.67,2.96,12.16,8.18,16.3199,14.11c6.2001,9.1,7.9701,20.32,8.5701,31.1
		c0.87,15.67,1.5599,31.71-2.7001,46.99c-3.72,15.37-10.83,30.68-8.5,46.83c-0.2-0.09-0.58-0.27-0.7699-0.36
		c-2.38-8.41-2.38-17.31-0.9401-25.88c2.3-14.2,6.8201-28.09,7.01-42.59c-0.05-12.04,0.33-24.11-0.79-36.1
		c-0.8099-9.08-3.96-18.02-9.61-25.22C1423.3083,573.35,1420.0684,570.74,1417.1683,567.82z"/>
	<path d="M516.6583,606.99c0.69-2.61,1.02-5.4,2.65-7.63c-0.23,5.85-1.06,11.68-0.91,17.56c-0.22,17.01,3.57,33.76,8.08,50.07
		c3.72,13.51,7.32,27.58,15.86,38.99c5.4,7.43,13.05,13.22,21.81,16.07c-0.2-2.78-0.29-5.58-0.2-8.36
		c3.1899,3.28,4.35,7.83,5.98,11.97c3.61,10.9,5.61,22.53,4.64,34.02c4.81-1.06,10.2-0.33,13.83,3.25
		c5.6,5.53,7.77,13.4,10.32,20.62c0.21-0.13,0.63-0.39,0.84-0.52l0.56-0.7c0.58,6.64,5.05,11.89,9.6,16.38
		c7.05,6.92,16.15,11.82,25.89,13.61c-0.23-0.62-0.68-1.86-0.91-2.49c5.1299-16,5.81-33.13,4.06-49.75
		c-1.94-20.4-7.63-40.15-12.5-59.98c-5.48-21.25-10.4-43.11-9.08-65.2c1.89,12.81,4.27,25.58,7.75,38.08
		c5.95,22.62,13.7,44.84,17.41,68c2.99,18.56,3.25,37.84-1.79,56.07c2.6-5.55,5.73-10.84,8.4-16.36c0.98-1.72,1-3.7,1.0699-5.6
		c0.79-42.03-13.25-82.94-10.9-125.04c0.45-8.42,1.99-16.72,3.69-24.96l0.42,0.0699c-2.11,21.94,0.21,43.9901,3.78,65.65
		c3.1,20.02,6.99,39.99,8.03,60.28c0.21,3.0099-0.09,6.09,0.56,9.08c6.52-32.73-1.14-66.5,5.85-99.18
		c2.08-8.78,4.81-17.61,9.8199-25.2c-3.7599,10.07-6.34,20.58-7.0699,31.34c-2.17,27.61,2.75,55.31-0.46,82.88
		c5.89-26.59,12.47-53.48,11.39-80.93c4.45,19.74,2.4,40.24-0.85,60c-5.19,31.14-14.42,62.11-12.38,93.98
		c0.74,9.65,4.28,19.33,11.66,25.87c-9.19-4.85-13.64-15.2-15.49-24.94c-3.21-18.93-0.67-38.18,2.04-57.01
		c-1.13,6-4.14,11.37-6.26,17.02c-1.93,11.1-4.74,22.26-10.26,32.16c2.26-7.93,4.38-15.93,5.32-24.14
		c-6.17,9.43-12.41,20.4-10.22,32.1c0.65,4.72,3.49,8.62,6.65,12.02c-8.09-4.54-10.49-14.75-9.72-23.37
		c-9.26-1.09-18.51-4.64-25.46-10.94c-0.4,0.39-0.78,0.8-1.15,1.22c6.59,13.41,16.02,26.4,16.35,41.9c0.29,10.3-2.01,21.09,2,30.96
		c4.99,12.85,15.97,21.79,25.31,31.39c-13.09-6.87-25.84-16.61-31.6-30.67c-3.87-9.75-2.27-20.43-1.91-30.61
		c0.51-9.75-3.18-18.98-6.33-28.02c-1.9-5.11-3.3199-10.37-4.84-15.6l1.24,0.31c-0.26-0.56-0.77-1.7-1.03-2.26
		c-5.71-4.85-10.3101-10.99-13.29-17.86c-1.35-3.13-2.63-6.28-4.22-9.28c-3.74,0.39-7.89,1.71-9.5,5.46
		c-3.49,7.92-2.35,16.94-0.87,25.21c4.19,20.29,14.03,38.74,22.78,57.33c-8.02-7.96-14.02-17.77-19.27-27.72
		c-6.95-13.73-11.94-29.1801-10.09-44.73c0.72-5.4,2.38-11.23,6.83-14.74c2.72-2.21,6.37-2.34,9.7-1.95
		c-2.28-3.67-5.09-8-9.8199-8.44c-4.11-0.61-7.65,2.16-9.98,5.24c-4.07,5.46-5.59,12.39-6.04,19.07c0.7,4.71,1.91,9.34,2.18,14.12
		c-0.61,1.52-1.36,3.1201-0.71,4.78c3.72,16.08,12.46,30.42,22.23,43.51c8.14,10.8,16.75,21.27,24.22,32.57
		c6.66,9.65,11.77,20.26,15.85,31.23c3.6,9.69,8.25,19.07,14.66,27.24c8.62,11.19,20.07,20.18,32.96,25.97
		c5.58,2.53,11.54,4.81,15.84,9.36c5.91,5.89,8.5,14.49,15.28,19.59c3.19,2.39,7.48,4.26,11.46,2.9301l0.84-2.56
		c0.12,1.3799,0.91,3.58-1.22,3.73c-5.25,1.17-10.69-1.03-14.53-4.59c-5.43-4.71-8.43-11.47-13.54-16.45
		c-3.98-3.77-9.16-5.84-14.16-7.87c-15.1-5.79-28.53-15.8-38.53-28.5c-7.01-8.7-11.56-19-15.6-29.33
		c-3.68-9.43-8.44-18.41-14.17-26.75c-10.95-15.98-24.08-30.39-34.09-47.01c-7.14-11.91-12.68-25.04-14.38-38.9
		c-0.74-5.31-0.16-10.67-0.25-15.99c-3.04-6.11-8.09-10.83-12.96-15.47c-10.42-10.14-15.92-24.41-17.58-38.66
		c-1.29-11.7-0.46-23.55,1.53-35.13c-5.65-11.65-8.96-24.23-11.97-36.77C513.7584,642.08,512.5483,624.1,516.6583,606.99
		 M532.0583,700.17c0.38,18.12,1.01,37.11,9.8,53.46c4.34,9.25,12.81,15.49,18.13,24.06c1.92-0.25,1.5-4.05,2.46-5.6
		c2.71-4.69,5.95-9.35,10.96-11.79c-5.05-12.03-8.08-24.88-9.19-37.86c-9.54-0.84-18.02-5.95-24.74-12.53
		c4.42,13.28,12.63,24.78,18.26,37.5c3.23,7.78,6.33,16.4,4.57,24.9c-2.84-8.41-6.73-16.4-11.1-24.11
		c-6.78-12.45-14.5-25.64-13.48-40.36C535.7584,705.33,533.9083,702.75,532.0583,700.17z"/>
	<path d="M595.2283,636.56c0.41-4.55,0.41-9.17,1.42-13.64c1.87,26.1,2.1,52.54,8.39,78.09c4.7,20.24,15.25,38.95,17.01,59.89
		c0.98,12.28-0.99,25.8-9.35,35.38c4.83-9.3101,6.7-19.96,5.37-30.35c-2.11-20.53-12.92-38.65-18.06-58.37
		C593.8583,684.46,593.5684,660.26,595.2283,636.56z"/>
	<path d="M579.4484,652.02c-1.01-9.11-2.11-18.59,0.6899-27.5c1.25,13.04,5.05,25.63,7.44,38.47c2.58,12.65,4.9301,25.35,6.82,38.12
		c0.41,3.38,1.18,6.77,0.78,10.2C586.8983,692.51,582.0084,672.36,579.4484,652.02z"/>
	<path d="M1348.6783,671.21l0.55-0.12c1.0299,9.52,3.47,18.8,6.21,27.96c4.73,15.93,7.35,32.45,8.29,49.03
		c0.2699,7,1.4199,13.97,0.8799,21c-0.5599,7.6-0.9199,15.21-1.1799,22.82c-1.42,3.44-0.5701,8.15-3.14,10.77
		c-0.8099-2.52-0.0599-5.16-0.13-7.72c-0.02-9.04-0.75-18.05-1.35-27.06c-1.08-16.01-2.24-32.04-4.59-47.92
		C1352.1283,703.75,1346.9684,687.73,1348.6783,671.21z"/>
	<path d="M1225.9983,717.18c5.64,1.18,11.36,1.82,17.12,2.15c-0.1899-0.63-0.5699-1.88-0.76-2.51
		c1.6001,1.07,2.9601,2.75,4.9801,3.05c4.5399,0.88,8.84,2.64,12.97,4.68c-1.63-2.35-3.25-4.71-4.46-7.3
		c8.4199,5.17,14.1899,13.38,21.2699,20.07c5.5,5.92,11.3101,11.64,16,18.26c-4.0199-2.62-7.5499-5.89-11.35-8.79
		c0.64,1.52,1.3,3.03,1.89,4.59c-4.5699-3.96-8.61-8.48-12.5-13.08c-4.58-6.11-11.75-9.59-18.65-12.41
		c2.9701,3.36,5.77,6.86,8.3401,10.54c2.5699,3.15,5.3099,6.19,7.58,9.58c-6.37-1.68-9.72-7.83-15.3201-10.78
		c-4.73-2.83-9.6299-5.44-14.8199-7.33c4.03,3.83,7.7,8.06,12.54,10.93l-2.49-0.18c0.89,1.42,1.8099,2.87,2.6899,4.33
		c-4.96-2.26-8.76-6.3-13.35-9.11c-7.17-3.18-14.5-6.24-22.2-7.83c7.7699,3.96,14.98,9.7,19.36,17.37
		c-10.02-5.43-19-12.59-28.4301-18.94c-5.84-0.98-11.77-1.29-17.63-2.17c0.02-0.16,0.04-0.48,0.05-0.65
		c5.83-0.4901,11.6699-1.17,17.5399-1.01c6,0.55,11.9501-1.21,17.9501-0.35c-0.22-0.57-0.66-1.72-0.88-2.29
		c4.5,3.41,10.3199,3.36,15.4199,5.35c3.3301,1.1,6.4801,2.6801,9.5701,4.34c-1-1.51-1.99-3.02-2.96-4.51
		C1238.8683,721.66,1231.7683,721,1225.9983,717.18 M1223.4083,723.23c1.87,0.95,3.8101,1.77,5.75,2.6
		c-0.23-0.4-0.71-1.18-0.95-1.57C1226.5984,723.9,1224.9983,723.54,1223.4083,723.23z"/>
	<path fill="#BBB7B6" d="M1404.1183,717.06c-1.5299,6.06-2.48,12.34-5.0699,18.07
		C1399.3083,728.77,1402.6884,723.17,1404.1183,717.06z"/>
	<path d="M1260.2683,717.79c7.76,2.01,14.5701,6.66,20.67,11.73c8.6799,7.68,16.27,17.47,18.84,28.97
		c-4.45-5.83-8.54-11.98-13.58-17.34C1278.4983,732.36,1269.3284,725.09,1260.2683,717.79z"/>
	<path fill="#BBB7B6" d="M1223.4083,723.23c1.59,0.31,3.1901,0.67,4.8,1.03c0.24,0.39,0.72,1.17,0.95,1.57
		C1227.2184,725,1225.2783,724.18,1223.4083,723.23z"/>
	<path d="M1172.2084,724.53c13.64,1.7,27.5599,3.06,40.4299,8.22c6.39,2.78,12.9,6.27,17.0901,12.01
		c-4.6801-2.66-9.51-5.09-14.6101-6.82c2.5701,2.65,5.4801,4.99,7.6901,7.99c-9.02-3.62-17-9.35-25.89-13.21
		c-3.16-0.97-6.36-1.77-9.5601-2.52c7.76,3.79,15.4301,8.08,21.6001,14.25c1.6899,2.05,4.26,2.82,6.58,3.94
		c-0.66-0.07-1.98-0.21-2.64-0.27l0.2001,1.7c-3.79-2.54-8.4501-2.4-12.7301-3.43c1.27,1.71,2.55,3.4,3.7001,5.22
		c-4.8-2.11-8.76-5.73-13.5601-7.78c-8.1799-2.58-16.3199-5.32-24.22-8.68c-2.97-1.31-6.25-2.34-8.34-4.96
		c4.73,1.4,9.5399,2.7,14.46,3.27c6.47,0.12,12.92,1.83,18.45,5.23c2.89,1.85,6.2301,2.76,9.42,3.98
		c-6.99-4.52-14.36-8.52-20.78-13.86C1177.3783,726.89,1174.6683,725.89,1172.2084,724.53z"/>
	<path d="M1282.0183,724.47c5.88,2.75,10.29,7.84,14.05,13.01c4.4399,6.51,7.86,13.99,8.4299,21.94
		c-4.59-6.68-8.34-13.9-12.87-20.61C1288.5083,733.96,1285.0383,729.36,1282.0183,724.47z"/>
	<path d="M1145.0583,733.66c9.29,4.97,17.98,11.52,28.48,13.81c-5.51-4.25-11.6-7.85-16.35-13c9.52,2.67,18.09,8,25.72,14.2
		c0.6801,0.6,1.48,0.95,2.41,1.06c5.0499,0.8,10.08,1.74,15.1799,2.23c-3.99,1.6-8.33,1.34-12.5199,1.27
		c1,1.21,2.11,2.49,3.1299,3.75c-2.6799-1.01-5.1399-2.48-7.7599-3.56c-3.65-0.69-7.38-0.92-11.04-1.5c3.38,3.01,6.92,5.96,9.41,9.8
		c-11.4501-4.96-21.3-12.81-31.3301-20.09c0.29-0.31,0.87-0.95,1.16-1.27C1149.1183,738.4,1146.8484,736.23,1145.0583,733.66z"/>
	<path d="M1137.7184,740.22c3.3099,3.04,6.2799,7.03,10.6799,8.47c11.5701,0.91,20.55,8.86,30.3301,14.15
		c-9.3301,0.61-18.7301-1.97-26.9-6.42C1145.6283,752.73,1139.4883,747.53,1137.7184,740.22z"/>
	<path d="M1116.6984,766.59c-1.37-7.21-2.7001-16.3,3.64-21.63c-2.5,7.61-0.03,15.39,1.0399,23.0099c0.77,4.29,1.4,8.8,4.0601,12.41
		C1119.8083,778.34,1118.1283,771.77,1116.6984,766.59z"/>
	<path d="M1131.2084,746.14c3.8199,2.43,7.34,5.29,10.77,8.26c2.0699,2.09,5.24,2.06,7.7899,3.31
		c5.9401,2.64,11.36,6.46,16.05,10.96c-4.8301-0.43-9.14-2.65-13.51-4.52c4.36,4.12,10.4299,5.15,16.0699,6.35
		c-6.6799,2.01-14.51,1.1-19.75-3.75C1142.1083,760.53,1135.6083,754.08,1131.2084,746.14z"/>
	<path d="M1146.1383,777.78c-13.1,1.23-23.6799-14.51-17.53-26.16c0.9,6.71,2.9,13.57,7.67,18.6
		C1139.0283,773.36,1142.5884,775.62,1146.1383,777.78z"/>
	<path d="M1416.9183,772.06c-0.12-6.24,0.67-12.63,3.22-18.38c-0.5699,5.11-1.1,10.27-0.51,15.41
		c1.4601,13.34,8.4701,25.42,9.49,38.84c0.92,15.98-5.7899,31.32-14.23,44.52c-8.6599,13.42-22.3099,22.87-30.12,36.89
		c-2.4,4.09-3.75,8.67-5.7,12.97c0.91-8.08,3.51-15.99,7.8099-22.9c5.78-9.58,14.01-17.35,20.26-26.61
		c6.01-8.8,10.77-18.49,13.8301-28.71c2.08-7.14,2.96-14.77,1.5499-22.1201C1420.8384,791.96,1417.2983,782.27,1416.9183,772.06z"/>
	<path d="M785.1183,760.19c0.84-0.85,1.72-1.67,2.63-2.45c-0.97,3.07-3,5.61-4.71,8.28c1.19-0.04,3.57-0.11,4.75-0.14
		c-2.75,1.88-6.39,2.28-8.71,4.79c-8.56,9.07-19.37,15.55-30.0699,21.77c-3.6,1.99-7.04,4.32-10.88,5.84
		c3.44-4.11,8.22-6.88,11.44-11.19c6.79-8.48,15.5-15.8701,25.99-19.22c2.86-0.73,4.91-2.96,6.9-4.99
		c-5.91,2.7-12.19,4.83-17.6,8.47c-13.63,11.12-26.59,23.07-40.68,33.61c9.88-13.32,22.54-24.34,35.22-34.93
		c-7.08,3.5099-13.69,7.96-19.23,13.62c-7.88,8.25-17.95,15.3199-21.69,26.6c0.01-7.88,4.69-14.69,9.76-20.33
		c6.9-7.81,14.11-15.9,23.76-20.32c7.24-2.7,13.78-7.46,21.58-8.47c-3.23,1.63-6.45,3.31-9.2599,5.63
		C771.0783,764.06,778.1284,762.19,785.1183,760.19z"/>
	<path d="M802.9583,763.57c2.66-1.76,5.15-3.75,7.79-5.54c-1.38,2.64-3.44,4.8199-5.16,7.24c-6.16,5.09-12.43,10.12-17.97,15.91
		c-6.29,6.49-12.16,14.5-21.27,17.06c5.32-4.86,10.35-10.1,14.3-16.15c-7.23,5.43-13.9,11.59-21.42,16.6299
		c1.98-3.54,4.87-6.42,7.32-9.61c-5.44,3.6-10.72,7.57-16.79,10.06c6.36-7.28,14.05-13.29,21.45-19.48
		c6.83-5.25,13.44-10.95,21.04-15.09c-2.03,3.06-4.68,5.63-7,8.45C790.8283,769.26,797.5483,767.62,802.9583,763.57z"/>
	<path d="M824.4283,765.02c3.76-0.65,5.91-4.24,9-6.12c-0.93,1.8199-1.99,3.59-2.94,5.41c-5.63,6.83-11.06,13.83-17.07,20.35
		c6.59-5.42,13.3-10.85,20.99-14.67c5.75-2.42,11.26-5.51,17.25-7.34c-0.78,0.75-1.56,1.49-2.35,2.22c1.17,0.02,3.53,0.05,4.71,0.06
		c-3.63,2.05-7.8199,2.96-11.28,5.31c-11.15,8.66-20.88,19.11-32.56,27.07c2.63-4.63,6.37-8.46,9.63-12.63
		c-4.58,2.78-9.18,5.54-14.02,7.88c-3.81,3.2-7.45,6.88-12.39,8.32c7.06-6.64,12.3-14.87,18.98-21.86c2.91-3.45,6.33-6.44,9.25-9.88
		c-13.67,7.42-24.09,19.46-37.95,26.57c0.55-1.15,1.21-2.28,1.31-3.57c6.96-7.63,15.52-13.51,23.24-20.31
		c4.07-3.29,8.01-6.78,12.56-9.4c-0.99,1.73-2.14,3.38-3.3,5.01C819.7383,766.46,822.0383,765.6,824.4283,765.02z"/>
	<path d="M886.1284,761.65c1.62-0.81,3.36-1.34,5.16-1.61c-6.29,4.92-12.71,9.79-18.08,15.7401c4.03-1.85,7.95-3.95,12.18-5.33
		c9.1801-1.78,17.8701-5.95,27.39-6.07c-7.51,3.56-15.49,6.12-22.79,10.13c-9.17,4.76-17.65,10.78-25.29,17.71
		c-0.76-0.3199-1.51-0.6299-2.2401-0.9399c2.3-2.79,4.72-5.4901,7.03-8.29c-3.07,1.87-6.56,3.36-8.74,6.33
		c-3.33,4.12-6.22,8.56-9.43,12.76c0.62-3.84,2.35-7.34,4.03-10.81c-3.98,2.35-7.98,4.66-12.15,6.63
		c4.85-5.97,11.52-10.04,17.3199-14.94C867.2283,773.99,875.9484,766.42,886.1284,761.65z"/>
	<path d="M833.5283,786.19c9.13-10.55,20.52-19.15,33.07-25.25c-3.67,4.51-8.43,7.92-12.46,12.07c6.51-2.11,11.1801-7.52,17.54-9.95
		c-1.59,2.07-3.39,3.96-5.24,5.8c1.92-0.18,3.85-0.3,5.79-0.34c-3.1,2.64-7.64,2.8-10.71,5.54c-8.49,8.27-16.7,16.83-25.04,25.23
		c2.28-6.05,5.96-11.43,10.02-16.41c-3.23,1.8-6.36,3.79-9.53,5.7c-4.76,3.51-8.35,8.31-12.67,12.31c1.09-2.9,2.71-5.55,4.28-8.2
		c-1.98,0.53-3.9,1.14-5.8799,1.63C826.2383,791.52,830.2783,789.35,833.5283,786.19z"/>
	<path d="M722.5783,779.19c6.63-8.54,16.59-15.62,27.84-15.17c3.57,0.4,7.09-0.21,10.64-0.57c-12.63,6.73-25.24,14.49-34.55,25.59
		c-5.98,6.5-11.6,13.37-15.95,21.09c1.16-5.74,3.57-11.21,7.04-15.91c3.65-5.59,7.75-10.8799,12.49-15.58
		c6.48-5.53,13.98-9.66,21.57-13.47c-15.55,2.59-25.87,15.88-33.79,28.38l-1.17-1.05c0.06,0.56,0.16,1.66,0.21,2.21
		c-3.82,4.83-7.17,10.07-11.64,14.34C710.1083,798.62,715.5684,788.34,722.5783,779.19z"/>
	<path d="M1106.5083,781c-5.0399-4.32-9.01-11.66-5.62-18.15c0.8,4.6801,2.9401,9.07,6.3,12.45c3.77,3.85,7.25,9.49,13.51,8.72
		C1116.1283,788.16,1109.9283,784.88,1106.5083,781z"/>
	<path d="M890.7584,781.35c7.7599-5.16,16.5699-9.58,26.1299-9.33c-4.59,2.23-9.2,4.4-13.72,6.75c2.08,0.17,4.17,0.28,6.25,0.61
		c-5.12,1.49-10.13,3.34-15.09,5.29c-6.29,3.54-11.79,8.39-18.34,11.49c1.63-2.59,3.78-4.78,5.7-7.16
		c-8.28,3.09-16.5,6.4-24.27,10.62c1.69-2.3,2.97-4.86,4.15-7.45c0.49,0.84,0.98,1.7,1.5099,2.54c-0.1-0.65-0.31-1.97-0.42-2.63
		l2.34,0.4C872.8784,787.29,881.7683,784.01,890.7584,781.35z"/>
	<path d="M1128.0183,794.69c18.15-13.75,40.76-21,63.38-22.13c18.8201-0.88,37.96,0.69,56.0601,6.15
		c12.7899,4.11,24.6499,10.64,36.2799,17.24c-7.97-2.78-15.4299-6.81-23.36-9.71c-8.97-3.68-18.38-6.31-28-7.54
		c-25.22-3.66-51.63-3.44-75.87,5.13c-12.49,4.16-23.64,11.38-34.2899,18.96c-7.4401,5.42-15.38,10.79-20.25,18.81
		c-1.8601,2.89-2.7201,6.2401-4.1001,9.36c0.8101-6.4901,3.76-12.57,8.0801-17.45
		C1112.3083,806.15,1120.3583,800.58,1128.0183,794.69z"/>
	<path d="M1139.3683,799.81c18.51-15.39,43.27-22.74,67.1901-20.36c17.5499,1.17,34.17,8.12,48.91,17.42
		c9.21,5.87,17.7699,12.88,24.75,21.32c0.7999,1,1.46,2.1,1.98,3.31c-6.98-3.97-13.27-9.07-20.37-12.88
		c-15.42-8.53-31.75-15.79-48.92-19.95c5.47,4.52,9.58,11.03,9.53,18.32c0.8199,11.89-7.51,22.57-17.9401,27.38
		c13.3301-0.91,26.8301-1.34,39.9-4.4c9.46-2.11,17.92-9.17,28.05-7.5699c-6.5901,0.18-12.4,3.38-18.03,6.46
		c-9.88,5.23-21.12,6.93-32.09,8.26c-17.5801,2.11-35.49,2.78-53.01-0.23c-9.74-1.59-19.0801-5.02-28.8301-6.53
		c-8.45-1.27-17.5099-0.94-25.1899,3.15c-1.61,1.07-2.46,2.94-4.1,3.99C1117.2783,822.89,1127.2284,809.92,1139.3683,799.81
		 M1189.8284,789.53c-6.63,0.9399-13.4301,2.04-19.4,5.25c-3.28,1.73-6.05,4.5699-7.24,8.1299c-2.75,7.58-0.15,16.29,5.2999,22
		c4.3,4.72,10.5701,7.2401,16.8401,7.9301c13.9199,1.3799,27.97-8.44,31.6799-21.8701c2.27-8.25-3.21-16.56-10.5299-20.0099
		C1201.3783,788.18,1195.3583,788.89,1189.8284,789.53 M1115.1083,832.61c6.77-3.73,14.5-5.68,22.2401-5.23
		c11.62,0.47,22.75,4.17,34.23,5.64c-5.48-3.65-10.1801-8.74-12.3201-15.06c-2.1899-5.75-1.35-12.03-0.38-17.93
		c0.5801-3.63,3.25-6.3101,5.5801-8.94C1143.8783,798.72,1126.2284,813.72,1115.1083,832.61z"/>
	<path d="M899.7283,786.21c8.39-4.8,18.34-6.54,27.88-5c-4.42,1.97-9.28,2.57-13.78,4.3c2.59,0.36,5.2,0.7,7.79,1.23
		c-9.61,2.94-19.88,3.16-29.37,6.54c-3.79-0.09-7.49,0.75-11.21,1.24C886.3883,790,893.3983,788.69,899.7283,786.21z"/>
	<path fill="#444844" d="M1189.8284,789.53c5.5299-0.64,11.5499-1.35,16.65,1.43c7.3199,3.45,12.7999,11.7599,10.5299,20.0099
		c-3.71,13.4301-17.76,23.25-31.6799,21.8701c-6.27-0.69-12.54-3.21-16.8401-7.9301c-5.45-5.71-8.0499-14.42-5.2999-22
		c1.1899-3.56,3.96-6.4,7.24-8.1299C1176.3983,791.57,1183.1984,790.47,1189.8284,789.53 M1185.8783,800.53
		c-4.3999,2.8199-6.36,9.14-3.75,13.81c2.12,4.94,9.38,6.15,13.3,2.7c3.85-2.83,4.4-9.14,0.91-12.46
		c-0.65-1.2-1.6801-2.13-2.75-2.91C1191.2883,800.35,1188.4183,799.29,1185.8783,800.53z"/>
	<path d="M913.4283,790.94c7.32-0.8,15.17-1.77,22,1.74c-5.83,1.67-11.94,1.98-17.97,1.81c-9.72-0.23-19.2599,1.83-28.8,3.32
		C895.2283,791.59,904.6984,789.9,913.4283,790.94z"/>
	<path fill="#797471" d="M1185.8783,800.53c2.54-1.2401,5.41-0.1801,7.7101,1.14c-2.89-0.01-6.5601-0.67-8.55,1.98
		c-2.22,2.74-2.49,7.8,0.89,9.75c3.1,1.52,7.61,0.78,9.41-2.39c0.96-1.99,0.8099-4.29,1-6.43c3.49,3.32,2.9399,9.63-0.91,12.46
		c-3.92,3.45-11.1801,2.2401-13.3-2.7C1179.5183,809.67,1181.4784,803.35,1185.8783,800.53z"/>
	<path fill="#BBB7B6" d="M1185.0383,803.65c1.99-2.65,5.66-1.9901,8.55-1.98c1.0699,0.78,2.1,1.71,2.75,2.91
		c-0.1901,2.14-0.04,4.44-1,6.43c-1.8,3.17-6.3101,3.91-9.41,2.39C1182.5483,811.45,1182.8184,806.39,1185.0383,803.65z"/>
	<path d="M815.3483,810.09c20.62-5.14,41.97-5.02,63.07-5.85c11.59-0.24,23.38,1.09,34.13,5.67c11.15,4.54,21.38,10.98,31.35,17.66
		c5.66,4.07,11.42,8.94,13.76,15.74c-4.06-6.32-9.74-11.38-16.31-14.97c-12.05-6.9-24.22-14.07-37.81-17.5
		c-11.08-3.1-22.71-2.73-34.08-2.04c-11.31,0.8-22.67,0.61-33.94,1.95c-16.56,1.87-33.17,5.67-48.05,13.35
		c-12.16,6.53-23.68,14.25-34.35,23c5.28-6.54,12.24-11.48,18.91-16.5099C784.9384,821,799.5983,813.61,815.3483,810.09z"/>
	<path d="M857.3983,810.47c4.98-0.47,10.03-0.78,14.98,0.25c13.53,1.36,26.71,5.48,38.86,11.54c8.15,4.03,16.21,8.66,22.59,15.25
		c3.63,3.66,7.11,7.84,8.59,12.88c-1.99-1.39-2.98-3.67-4.47-5.49c-6-7.77-14.7-12.9-23.47-16.97c-9.86-4.42-20.15-7.98-30.78-9.94
		c5.12,5.53,6.99,13.8,4.58,20.97c-1.95,6.63-6.64,11.96-11.71,16.46c13.53-2.64,27.14-4.85,40.74-7.08
		c5.72-1.04,11.64-0.65,17.24,0.86c-4.53,0.08-9.12-0.59-13.58,0.52c-21.45,5.11-42.97,9.98-64.64,14.07
		c-6.23,1.01-12.54,2.03-18.86,1.56c-7.75-0.43-15.56-0.5099-23.21-2c-9.69-1.5699-19.29-4.54-29.21-3.98
		c12.33-2.95,24.91,1.42,37.34,1.63c7.6801-0.12,15.42,0.88,23.08-0.22c-14.3-3.72-23.74-20.25-18.77-34.39
		c-17.26,8.15-33.47,19.52-44.59,35.26c-2.15,2.8-3.65,6.06-6.09,8.63c1.96-12.26,9.32-23.05,17.6801-31.95
		C810.2183,821.07,833.8583,812.08,857.3983,810.47 M859.8483,814.54c-6.38,0.67-12.79,1.7-18.78,4.06
		c-3.57,1.45-7.14,3.55-9.07,7.02c-3.41,5.89-3,13.5,0.37,19.33c3.75,7.05,11.06,11.86,18.92,12.96
		c14.71,2.3701,30.32-8.11,33.5-22.7c1.64-7.58-3.41-15.22-10.02-18.59C870.2584,814,864.8883,813.92,859.8483,814.54z"/>
	<path fill="#444944" d="M859.8483,814.54c5.04-0.62,10.41-0.54,14.92,2.08c6.61,3.37,11.66,11.01,10.02,18.59
		c-3.18,14.59-18.79,25.07-33.5,22.7c-7.86-1.1-15.17-5.91-18.92-12.96c-3.37-5.83-3.78-13.44-0.37-19.33
		c1.93-3.47,5.5-5.57,9.07-7.02C847.0583,816.24,853.4683,815.21,859.8483,814.54 M853.8883,825.6c-5.34,3-7.25,11.2-2.86,15.81
		c3.83,4.79,12.37,3.22,14.54-2.43c1.71-3.32,0.3-7.12-1.91-9.79c-1.14-0.88-2.24-1.76-3.3-2.69
		C858.4384,825.33,856.0483,824.77,853.8883,825.6z"/>
	<path d="M963.0883,822.54c5.35,5.83,8.99,12.98,12.76,19.88c4.96,10.15,10.89,19.86,14.76,30.52
		c11.34,29.38,14.56,60.96,17.96,92.02c1.55,15.41,4.1,30.7,5.44,46.13c0.86,9.59,1.62,19.21,2.69,28.79
		c0.87,7.75,2.81,15.37,3.16,23.1899c0.27,5.76,0.64,11.77,3.54,16.91c4.3,7.8,11.4,13.51,18.54,18.6
		c5.15,3.51,10.86,7.26,17.34,7.17c5.74-0.27,9.73-4.83,12.86-9.14c10.8301-14.96,28.75-25.13,47.36-25.29
		c-17.39,1.3201-34.0699,10.4401-44.3199,24.5701c-3.26,4.2999-6.4,9.27-11.73,11.1799c-6.01,2.25-12.53-0.09-17.8301-3.08
		c-6.0199-3.52-11.6699-7.6799-16.8099-12.37c-2.16-1.8-4.96-2.52-7.54-3.4399c-10.6-3.28-21.74-4.8401-32.8199-4.63
		c10.53-5.16,23.36-3.49,33.9,0.8899c-1.8-3.33-3.63-6.71-4.36-10.45c-1.4-6.75-0.94-13.72-2.35-20.47
		c-2.77-14.3301-3.62-28.9301-5.11-43.43c-1.13-12.1-2.84-24.13-4.22-36.19c-2.57-24.06-4.67-48.25-9.66-71.96
		c-3.57-16.98-9.14-33.59-17.23-48.96C974.6683,842.46,969.4083,832.18,963.0883,822.54z"/>
	<path fill="#797471" d="M853.8883,825.6c2.16-0.83,4.55-0.27,6.47,0.9c-2.69,0.49-6.11,0.07-7.88,2.59
		c-1.96,2.6299-2.29,7.08,0.51,9.27c3.23,2.06,8.63,1.16,10.19-2.63c0.58-2.13,0.39-4.37,0.48-6.54c2.21,2.67,3.62,6.47,1.91,9.79
		c-2.17,5.65-10.71,7.22-14.54,2.43C846.6383,836.8,848.5483,828.6,853.8883,825.6z"/>
	<path fill="#BBB7B6" d="M852.4783,829.09c1.77-2.52,5.19-2.1,7.88-2.59c1.06,0.93,2.16,1.81,3.3,2.69
		c-0.09,2.17,0.1,4.41-0.48,6.54c-1.56,3.79-6.96,4.69-10.19,2.63C850.1884,836.17,850.5183,831.72,852.4783,829.09z"/>
	<path d="M670.8283,889.94c2.14-8.26,2.51-16.83,3.88-25.21c2.67,10.94,2.42,22.4,0.31,33.42c-0.71,3.75-1.86,7.94-5.25,10.15
		c-1.62,1.34-4.63,1.99-4.24,4.65c0.15,9.96,5.11,19.12,11.42,26.56c2.64,3.27,5.89,5.99,8.53,9.27
		c-11.94-5.53-22.34-15.8101-25.5-28.86c-0.68-3.78-1.5-7.87-0.13-11.58c1.19-3,4.45-4.01,6.84-5.78
		C669.3483,898.91,669.6383,894.17,670.8283,889.94z"/>
	<path d="M1327.8583,1046.4399c-2.0399-18.84,1.79-38.47,11.6201-54.7499c-2.9901,9.41-6.52,18.71-8.26,28.48
		C1329.2583,1028.8101,1328.9584,1037.6801,1327.8583,1046.4399z"/>
	<path d="M1139.6083,1007.03c7.2301,8.5099,9.3701,20.0599,9.6001,30.9299c-0.11,7.02,0.47,14.3201-2.02,21.03
		c-1.65,4.3101-4.49,8.51-8.92,10.3101c5.15-4.3101,8.17-10.6801,8.4501-17.38c0.4399-11.66,0.73-23.65-2.8201-34.91
		C1142.8783,1013.51,1140.9983,1010.37,1139.6083,1007.03z"/>
	<path d="M953.2183,1033.83c2.34-6.34,5.15-12.54,8.33-18.5099c-1.45,7.07-5.05,13.46-6.77,20.46c-3.92,13.33-0.51,28.2,7.74,39.21
		c1.96,2.66,4.44,4.9,6.46,7.53C953.4183,1072.51,947.0783,1051.0601,953.2183,1033.83z"/>
	<path d="M1277.0383,1117.91c-0.89-17.88,2.09-36.3101,10.33-52.3201c-5.4399,25.51-8.8199,52.05-3.83,77.9301
		C1279.1483,1135.76,1277.7483,1126.6801,1277.0383,1117.91z"/>
	<path d="M812.7683,1114.13c-0.44-4.83-1.18-9.8,0.16-14.55c1.48,18.39,8.92,35.8,18.31,51.49c8.23,13.6801,18.89,25.8,31.3,35.8201
		c-14.53-6.9501-25.87-19.14-34.48-32.51C820.3184,1142.1899,814.6583,1128.49,812.7683,1114.13z"/>
	<path d="M818.6284,1166.03c-21.88-5.35-36.2401-30.53-30.61-52.17c-1.52,17.28,6.1,35.08,19.87,45.6801
		C811.1683,1162.16,814.9384,1164.04,818.6284,1166.03z"/>
	<path d="M1204.7883,1131.3101c1.84-1.17,3.41-2.9501,5.5699-3.53l0.66,1.3199c-6.24,5.4301-10.08,12.84-15.2899,19.14
		c-5.9601,7.36-12.53,14.2-18.8101,21.29c-12.71,13.74-28.84,23.58-44.7,33.21c-15.4401,9.28-31.9,17.71-49.89,20.48
		c-15.89,2.5-32.05,1.3-47.9401-0.5c-20.3-2.34-40.68-5.71-59.89-12.89c-18.78-7.4099-34.14-20.8999-50.17-32.7699
		c-6.22-4.3401-11.67-9.67-17.94-13.9301c-2.58-1.88-5.79-2.36-8.72-3.4c-3.5-1.76-6.78-3.9-10.17-5.83
		c0.36-0.35,1.09-1.05,1.46-1.4c11.36,5.27,24.09,5.8,36.35,7.21c8.1,0.67,16.05,2.41,24.12,3.37
		c12.8,1.6001,25.73,2.3501,38.62,1.75c14.41-0.98,29.18-4.25,43.45-0.3999c8.52,2.1599,15.8301,8.45,24.9301,8.34
		c10.75-0.0601,19.88-6.5,28.41-12.26c20.23-1.74,40.48-3.48,60.75-4.66C1167.2184,1153.6899,1187.2683,1143.76,1204.7883,1131.3101
		 M1155.8983,1156.33c-8.99,2.1001-18.26,1.7101-27.38,2.65c-14.25,1.17-28.52,2.15-42.76,3.46
		c-8.7999,5.9301-18.2799,12.4301-29.36,12.3401c-9.54,0.25-17.22-6.3101-26.13-8.5701c-14.0699-3.5699-28.52-0.1699-42.7,0.66
		c-15.77,0.63-31.58-0.5599-47.15-3.02c-10.26-1.77-20.64-2.85-31.02-3.5599c29.26,5.7799,57.73,14.89,86.98,20.73
		c21.03,4.27,42.58,7.0599,64.06,5.4299c21.13-1.51,41.8199-6.2899,62.38-11.1599c12.95-3.0901,26-6.25,38.1799-11.77
		c9.3-4.38,18.4-9.24,26.86-15.1c4.9701-3.63,10.3501-7.05,13.8201-12.27C1187.6183,1145.23,1172.3983,1152.95,1155.8983,1156.33
		 M1165.2483,1163.83c-15.73,7.7201-33,11.3-49.9199,15.3201c-22.9301,5.39-46.28,10.01-69.9301,9.7999
		c-46.69-0.8999-90.96-17.33-136.23-26.7799c5.92,5.1499,12.05,10.0499,18.39,14.6799c14.81,11.0701,29.15,23.35,46.4,30.53
		c17.94,6.97,37.02,10.39,56.05,12.79c17.35,2.0499,35.02,3.85,52.39,0.97c17.15-2.75,32.86-10.7001,47.62-19.52
		c16.9301-10.23,34.22-20.71,47.38-35.75c5.7001-6.5599,11.92-12.6899,17.09-19.6899
		C1185.4083,1153.09,1175.5083,1158.88,1165.2483,1163.83z"/>
	<path d="M381.1883,1381.71c8.26-7.75,15.82-16.22,24.33-23.6899c-11.87,14.39-24.61,28.0599-37.89,41.16
		c-12.28,12.1899-25.68,23.24-39.87,33.13c-7.86,5.5699-15.74,11.3199-22.01,18.7c-5.86,6.91-9.54,15.89-9.27,25.02
		c0.26,7.83,4.87,15.15,11.51,19.2c10.17,6.36,22.41,7.53,33.44,11.77c6.86,2.33,13.37,6.2,17.82,12.03
		c-5.35-4.9601-11.76-8.72-18.85-10.52c-11.33-3.37-23.54-4.37-33.97-10.3101c-7.97-4.3999-13.78-12.95-13.77-22.2
		c-0.65-10.41,3.63-20.65,10.32-28.47c8.92-10.78,21.35-17.62,32.41-25.89C351.6383,1409.51,366.7383,1395.91,381.1883,1381.71z"/>
	<path d="M1157.4183,1454.11c5.76-18.5,11.54-37.04,18.63-55.08c-11.85,42.36-23.87,84.6899-33.92,127.53
		c-11.0599,45.7799-20.6799,91.9299-29.1,138.2699l-0.5699-0.0699c5.21-45.72,14.0399-90.96,24.52-135.74
		C1143.2184,1503.9,1149.7483,1478.84,1157.4183,1454.11z"/>
	<path d="M371.4083,1434.3c20.96,1.25,41.05,9.34,58.83,20.22c28.49,17.39,50.44,43.38,68.85,70.84
		c12.84,19.27,24.31,39.4,35.71,59.55c37.58,65.96,73.91,132.64,108.56,200.2c19.35,37.3,38.07,74.9301,56.28,112.8
		c17.67,35.95,34.46,72.34,51.03,108.8099c1.86,4.13,3.9,8.1901,5.54,12.4301c-9.19-17.9-17.54-36.26-26.69-54.2001
		c-62.73-128.5-129.08-255.25-199.17-379.8899c-17.86-31.4801-35.12-63.7001-58.78-91.3101c-14.16-16.61-30.73-31.34-49.67-42.28
		C406.4283,1442.49,389.2183,1436.34,371.4083,1434.3z"/>
	<path d="M990.2083,1435.1801c9.55,0.1899,18.89,3.7799,26.5,9.49c11.66,8.61,19.81,21.12,31.7401,29.4299
		c3.0399,2.2001,7.2999,2.2001,10.52,0.36c6.26-3.5399,9.71-10.2899,15.7-14.1899c5.84-3.97,11.9301-7.96,15.54-14.26
		c-2.12,7.38-8.54,12.1-14.1901,16.76c-5.35,4.23-8.1699,10.9399-14.0399,14.62c-4.67,3.4-11.3701,3.5599-16.16,0.33
		c-12.79-8.71-21.02-22.34-32.9301-32.03C1006.2883,1440.42,998.3583,1437.15,990.2083,1435.1801z"/>
	<path d="M1726.1683,1446.88c-16.17,71.1801-30.28,142.86-40.8,215.11c-5.74,39.35-10.6,78.8201-14.7799,118.37
		c-0.4301,3.24-0.39,6.52-0.7101,9.79c-0.6-5.67,0.03-11.36,0.3201-17.02c5.9-94.76,20.75-188.9401,43.58-281.08
		C1717.7284,1476.95,1721.3583,1461.72,1726.1683,1446.88z"/>
	<path d="M1826.9083,1463.34l0.48,0.13c-32.9199,57.49-60.1,118.26-81.33,181.01c-9.76,28.5701-17.5701,57.76-26.35,86.64
		c-15.11,50.58-31.17,100.89-45.4501,151.71c-14.7,52.5901-27.23,105.9-34.4,160.0801c-6.22,47.5199-9.8799,95.62-22.25,142.09
		h-0.83c12.72-51.8201,14.67-105.4099,21.98-158.1c7-51.05,19.2201-101.2101,32.9701-150.8201
		c15.1699-54.7699,32.96-108.7699,49.23-163.21c7.89-26.8,15.74-53.64,25.39-79.88c10.1-27.8199,21.36-55.23,33.87-82.05
		C1794.3083,1520.98,1809.9983,1491.79,1826.9083,1463.34z"/>
	<path d="M181.8183,1489.0601c0.78-1.26,1.55-2.5,2.33-3.7301c48.4,29.0901,90.84,68.0801,123.71,114.01
		c13.56,19.2001,22.28,41.3201,29.07,63.6901c12.03,40.63,17.83,82.71,26.83,124.0399c23.92,121.7001,32.71,246.4301,25.36,370.2401
		c-1.06-0.05-3.18-0.1501-4.23-0.2c7.53-127.55-2.04-256.0701-27.77-381.2301c-8.75-41.39-14.6-83.58-28.21-123.77
		c-6.41-18.53-14.5-36.6899-26.21-52.51C270.3183,1555.1899,229.0183,1517.25,181.8183,1489.0601z"/>
	<path d="M481.4583,1485.83c24.79,27.02,48.37,55.15,71.79,83.36c51.52,62.7401,100.66,127.4501,146.81,194.2401
		c7.46,11.13,15.37,21.98,22.33,33.4399c-23.12-30.86-45.8799-61.99-69.1899-92.7c-48.57-64.4701-98.54-127.87-149.45-190.5
		C496.3883,1504.33,488.5783,1495.35,481.4583,1485.83z"/>
	<path d="M191.1683,1535.65c12.55-2.6801,26.13-2.48,38.05,2.6799c15.44,6.75,25.75,20.87,34.44,34.7201
		c9.46,15.3899,20.32,29.84,31.1,44.3099c14.66,19.76,28.55,41.1801,33.44,65.67c-5.55-16.48-13.85-31.92-23.95-46.05
		c-11.02-15.61-23.27-30.3099-34.23-45.96c-10.68-15.9-19.18-34.09-34.93-45.79
		C222.6083,1535.86,206.2283,1534.4301,191.1683,1535.65z"/>
	<path d="M1874.5984,1548.87c2.23-5.03,4.2899-10.15,6.73-15.08c-9.27,26.98-20.91,53.12-33.13,78.89
		c-38.0801,78.45-86.85,151.9099-145.8401,216.21c5.4501-7.73,11.8401-14.76,17.52-22.3201
		c29.92-38.13,57.79-77.8899,82.8201-119.3899C1829.7583,1642.77,1853.5583,1596.42,1874.5984,1548.87z"/>
	<path d="M1280.6683,1615.45c4.59-23.85,5.99-48.1699,6.26-72.4099c1.87,44.8099-4.98,89.72-18.13,132.5299
		c-12.1801,40.76-29.22,79.87-47.72,118.12c-29.39,61.2001-63.29,120.3-88.4401,183.4901c-12.23,30.7699-22.99,62.25-29.75,94.7198
		c-7.95,37.0601-10.9199,75.3601-6.61,113.1001h-0.47c-2.5701-19.8601-3.63-39.96-2.51-59.96
		c1.74-35.8201,9.42-71.1001,19.99-105.28c9.54-30.45,21.66-60.03,34.92-89.03c28.74-63.24,64.0599-123.2999,91.51-187.15
		C1257.7184,1702.45,1272.8484,1659.77,1280.6683,1615.45z"/>
	<path d="M834.9984,1600.66c2.33,1.1599,5,0.0399,7.49,0.51c5.81,0.4199,11.2,3.75,14.21,8.75c-1.26,0.6699-2.5,1.39-3.75,2.11
		c-2.45-3.79-6.5-6.03-10.88-6.78c10.94,9.61,19.91,22.1899,22.54,36.76c1.1,5.33-1.02,11.76-6.3,14.02
		c-5.89,2.45-12.74,1.1799-18.29-1.5901c-9.52-5.0399-17.7-13.71-19.98-24.48c-1.87-9.1699,1.09-19.8199,8.93-25.39
		C830.8983,1603.14,833.4984,1602.64,834.9984,1600.66 M823.8983,1626.9301c1.05,9.1599,7.45,16.7799,14.9,21.75
		c4.92,3.3099,11.21,5.5599,17.1,3.72c4.11-1.5701,5.43-6.5801,4.33-10.5c-2.64-12.03-9.56-22.9301-18.72-31.0701
		c-1.47,0.36-2.94,0.7001-4.39,1.0701c-0.45-2.01-0.91-4-1.35-5.97C827.2183,1608.72,822.8583,1618.4301,823.8983,1626.9301z"/>
	<path d="M777.1783,1667.6899c4.58-7.0699,14.24-11.11,22.18-7.3199c-0.68,1.2-1.34,2.42-2,3.67c-2.94-0.99-6.04-0.9301-9.06-0.4401
		c0.26,1.75,2.25,1.99,3.59,2.67c-1.9,8.62,3.2401,16.4299,5.1801,24.54c1.56,5.95,1.43,13.11-3.1,17.7799
		c-3.63,4.2201-10.6,5.8301-15.1,2.05c-4.63-3.6801-5.28-10.04-5.78-15.51C772.3784,1685.92,771.8283,1675.74,777.1783,1667.6899
		 M778.1683,1675.84c-2.03,7.26-1.22,14.9-0.47,22.29c0.54,3.86,1.65,8.6801,5.75,10.22c5.3,1.0601,9.9399-4.35,10.22-9.3199
		c0.53-10.4501-7.22-19.39-6.4-29.88c-0.03-1.41,0.96-3.55-0.74-4.25C782.3483,1667.0601,779.3784,1671.3199,778.1683,1675.84z"/>
	<path d="M146.0983,1746.87c-6.06-19.62-11.14-39.6801-13.36-60.11c15.95,81.63,56.03,158.35,113.9,218.09
		c18.75,19.6901,39.63,37.28,61.72,53.11c5.39,3.7201,10.98,7.17,16.19,11.14c-32.78-18.16-62.25-42.0499-88.06-69.15
		C195.5383,1856.45,164.1483,1803.86,146.0983,1746.87z"/>
	<path d="M1911.1583,1711.78c-1.5,12.89-5.1899,25.4299-8.3199,38.01c-25.77,91.22-79.6001,174.72-153.49,234.2899
		c5.7-6.3199,12.4199-11.6599,18.24-17.87C1837.8284,1896.9,1888.0083,1807.6801,1911.1583,1711.78z"/>
	<path d="M1406.0583,1773.87c-2.78,18.08-5.8,36.4401-13.5601,53.1801c-6.4199,13.8199-15.5299,26.1699-25.11,37.9399
		c-56.22,70.3101-113.1899,140.01-171.0599,208.97c-10.02,11.6899-19.61,23.76-29.98,35.1201
		c7.71-10.6201,16.1399-20.72,24.1599-31.1101c56.9501-72.1799,114.89-143.5599,173.5601-214.34c9.58-11.34,18.85-23.11,25.61-36.39
		c6.83-13.2,10.73-27.66,13.71-42.14C1404.2483,1781.34,1404.7483,1777.49,1406.0583,1773.87z"/>
	<path d="M976.4283,1877.11c6.58-1.4399,13.49,0.97,18.45,5.35c5.12,4.5,9.53,10.3,10.81,17.14c2.13,12.01-2.27,25.1801-11.61,33.13
		c-8.34,7.28-22.34,7.92-30.36-0.15c-12.76-13.4399-11.85-37.08,1.69-49.6599C968.5183,1880.1,972.2983,1877.96,976.4283,1877.11
		 M975.9283,1881.66c-4,1.1899-7.35,3.9199-10,7.0599c-9.19,11.15-9.39,28.6801-0.05,39.8101c4.74,5.6899,13.37,7.0399,20.03,4.1699
		c10.72-4.86,16.56-17.2899,16.01-28.6899c-0.15-6.63-3.82-12.54-8.52-16.95C989.0084,1882.49,982.1984,1879.5601,975.9283,1881.66z
		"/>
	<path d="M1875.9484,1902.5699c5.34-8.47,10.09-17.2999,15.53-25.6899c-9.5901,19.89-20.5801,39.11-31.79,58.13
		c-40.55,68.03-88.2001,131.9399-142.6901,189.45c-0.45,0.4399-1.35,1.3101-1.7999,1.75c5.26-7.45,11.6799-14.02,17.27-21.21
		C1785.1783,2041.16,1833.2284,1973.48,1875.9484,1902.5699z"/>
	<path d="M215.3483,1922.95c12.06,11.42,24.72,22.2301,38.36,31.75c17.6,12.41,35.69,24.1801,52.59,37.5601
		c15.3,12.67,29.56,27.0699,39.68,44.29c8.99,14.8201,14.29,32.01,13.87,49.4299c-1.28-6.3201-1.6-12.8301-3.57-19
		c-5.44-19.4299-17.17-36.4399-30.81-51.0499C292.4383,1980.65,245.8383,1960.91,215.3483,1922.95z"/>
	<path d="M113.5783,1941.9399c0.22,42.89,9.39,85.76,27.4,124.73c9,19.3401,19.92,37.8101,32.78,54.8401
		c1.64,2.1299,3.36,4.23,4.77,6.54c-12.08-11.9299-22.02-25.8801-30.89-40.3201c-20.63-34.6599-32.92-74.35-34.86-114.6699
		C112.1083,1962.6899,112.3983,1952.24,113.5783,1941.9399z"/>
</g>
</svg>
